<?xml version="1.0" encoding="UTF-8" standalone="no"?>
<svg
   xmlns:osb="http://www.openswatchbook.org/uri/2009/osb"
   xmlns:dc="http://purl.org/dc/elements/1.1/"
   xmlns:cc="http://creativecommons.org/ns#"
   xmlns:rdf="http://www.w3.org/1999/02/22-rdf-syntax-ns#"
   xmlns:svg="http://www.w3.org/2000/svg"
   xmlns="http://www.w3.org/2000/svg"
   xmlns:xlink="http://www.w3.org/1999/xlink"
   xmlns:sodipodi="http://sodipodi.sourceforge.net/DTD/sodipodi-0.dtd"
   xmlns:inkscape="http://www.inkscape.org/namespaces/inkscape"
   inkscape:version="1.0 (4035a4fb49, 2020-05-01)"
   sodipodi:docname="auraaBase.svg"
   xml:space="preserve"
   enable-background="new 97 97.1 806 598.9"
   viewBox="97 97.1 806.09998 598.96665"
   height="598.96667"
   width="806.09998"
   y="0px"
   x="0px"
   id="Layer_1"
   version="1.1"><metadata
   id="metadata413"><rdf:RDF><cc:Work
       rdf:about=""><dc:format>image/svg+xml</dc:format><dc:type
         rdf:resource="http://purl.org/dc/dcmitype/StillImage" /><dc:title /></cc:Work></rdf:RDF></metadata><defs
   id="defs411"><linearGradient
     id="linearGradient4071"
     osb:paint="solid"><stop
       style="stop-color:#6c015b;stop-opacity:1;"
       offset="0"
       id="stop4069" /></linearGradient><linearGradient
     id="linearGradient3759"
     inkscape:collect="always"><stop
       id="stop3755"
       offset="0"
       style="stop-color:#f202cb;stop-opacity:1" /><stop
       id="stop3757"
       offset="1"
       style="stop-color:#000000;stop-opacity:1" /></linearGradient><linearGradient
     inkscape:collect="always"
     id="linearGradient3393"><stop
       style="stop-color:#f202cb;stop-opacity:1"
       offset="0"
       id="stop3389" /><stop
       style="stop-color:#000000;stop-opacity:1"
       offset="1"
       id="stop3391" /></linearGradient><linearGradient
     inkscape:collect="always"
     xlink:href="#linearGradient3759"
     id="linearGradient4065"
     gradientUnits="userSpaceOnUse"
     x1="511.90942"
     y1="700.39227"
     x2="515.21259"
     y2="329.40875" /><linearGradient
     gradientUnits="userSpaceOnUse"
     y2="328.4407"
     x2="380.35825"
     y1="708.19244"
     x1="377.07178"
     id="linearGradient2474"
     xlink:href="#linearGradient3393"
     inkscape:collect="always" /><linearGradient
     y2="330.93225"
     x2="628.3067"
     y1="700.50897"
     x1="625.98822"
     gradientUnits="userSpaceOnUse"
     id="linearGradient2478"
     xlink:href="#linearGradient3759"
     inkscape:collect="always" /></defs><sodipodi:namedview
   inkscape:snap-page="true"
   inkscape:current-layer="Layer_1"
   inkscape:window-maximized="1"
   inkscape:window-y="-8"
   inkscape:window-x="-8"
   inkscape:cy="58.046931"
   inkscape:cx="607.81983"
   inkscape:zoom="0.46014578"
   showgrid="false"
   id="namedview409"
   inkscape:window-height="1017"
   inkscape:window-width="1920"
   inkscape:pageshadow="2"
   inkscape:pageopacity="0"
   guidetolerance="10"
   gridtolerance="10"
   objecttolerance="10"
   borderopacity="1"
   bordercolor="#666666"
   pagecolor="#ffffff"
   inkscape:document-rotation="0"
   inkscape:snap-smooth-nodes="true" />
<pattern
   overflow="visible"
   viewBox="0 -231.7 40 103"
   id="SVGID_1_"
   patternUnits="userSpaceOnUse"
   height="103"
   width="40"
   y="696"
   x="97">
	<g
   id="g38">
		<polygon
   id="polygon2"
   points="0,-128.7 40,-128.7 40,-231.7 0,-231.7   "
   fill="none" />
		<g
   id="g36">
			<polygon
   id="polygon4"
   points="0,-128.7 40,-128.7 40,-231.7 0,-231.7    "
   fill="none" />
			<polygon
   id="polygon6"
   points="34.5,-360.5 37.5,-360.5 37.5,-206 34.5,-206    " />
			<polygon
   id="polygon8"
   points="26.5,-360.5 29.5,-360.5 29.5,-206 26.5,-206    " />
			<polygon
   id="polygon10"
   points="18.5,-360.5 21.5,-360.5 21.5,-206 18.5,-206    " />
			<polygon
   id="polygon12"
   points="10.5,-360.5 13.5,-360.5 13.5,-206 10.5,-206    " />
			<polygon
   id="polygon14"
   points="2.5,-360.5 5.5,-360.5 5.5,-206 2.5,-206    " />
			<polygon
   id="polygon16"
   points="34.5,-257.5 37.5,-257.5 37.5,-103 34.5,-103    " />
			<polygon
   id="polygon18"
   points="26.5,-257.5 29.5,-257.5 29.5,-103 26.5,-103    " />
			<polygon
   id="polygon20"
   points="18.5,-257.5 21.5,-257.5 21.5,-103 18.5,-103    " />
			<polygon
   id="polygon22"
   points="10.5,-257.5 13.5,-257.5 13.5,-103 10.5,-103    " />
			<polygon
   id="polygon24"
   points="2.5,-257.5 5.5,-257.5 5.5,-103 2.5,-103    " />
			<polygon
   id="polygon26"
   points="34.5,-154.5 37.5,-154.5 37.5,0 34.5,0    " />
			<polygon
   id="polygon28"
   points="26.5,-154.5 29.5,-154.5 29.5,0 26.5,0    " />
			<polygon
   id="polygon30"
   points="18.5,-154.5 21.5,-154.5 21.5,0 18.5,0    " />
			<polygon
   id="polygon32"
   points="10.5,-154.5 13.5,-154.5 13.5,0 10.5,0    " />
			<polygon
   id="polygon34"
   points="2.5,-154.5 5.5,-154.5 5.5,0 2.5,0    " />
		</g>
	</g>
</pattern>
<pattern
   overflow="visible"
   viewBox="0 -231.7 40 103"
   id="SVGID_2_"
   patternUnits="userSpaceOnUse"
   height="103"
   width="40"
   y="696"
   x="97">
	<g
   id="g77">
		<polygon
   id="polygon41"
   points="0,-128.7 40,-128.7 40,-231.7 0,-231.7   "
   fill="none" />
		<g
   id="g75">
			<polygon
   id="polygon43"
   points="0,-128.7 40,-128.7 40,-231.7 0,-231.7    "
   fill="none" />
			<polygon
   id="polygon45"
   points="34.5,-360.5 37.5,-360.5 37.5,-206 34.5,-206    " />
			<polygon
   id="polygon47"
   points="26.5,-360.5 29.5,-360.5 29.5,-206 26.5,-206    " />
			<polygon
   id="polygon49"
   points="18.5,-360.5 21.5,-360.5 21.5,-206 18.5,-206    " />
			<polygon
   id="polygon51"
   points="10.5,-360.5 13.5,-360.5 13.5,-206 10.5,-206    " />
			<polygon
   id="polygon53"
   points="2.5,-360.5 5.5,-360.5 5.5,-206 2.5,-206    " />
			<polygon
   id="polygon55"
   points="34.5,-257.5 37.5,-257.5 37.5,-103 34.5,-103    " />
			<polygon
   id="polygon57"
   points="26.5,-257.5 29.5,-257.5 29.5,-103 26.5,-103    " />
			<polygon
   id="polygon59"
   points="18.5,-257.5 21.5,-257.5 21.5,-103 18.5,-103    " />
			<polygon
   id="polygon61"
   points="10.5,-257.5 13.5,-257.5 13.5,-103 10.5,-103    " />
			<polygon
   id="polygon63"
   points="2.5,-257.5 5.5,-257.5 5.5,-103 2.5,-103    " />
			<polygon
   id="polygon65"
   points="34.5,-154.5 37.5,-154.5 37.5,0 34.5,0    " />
			<polygon
   id="polygon67"
   points="26.5,-154.5 29.5,-154.5 29.5,0 26.5,0    " />
			<polygon
   id="polygon69"
   points="18.5,-154.5 21.5,-154.5 21.5,0 18.5,0    " />
			<polygon
   id="polygon71"
   points="10.5,-154.5 13.5,-154.5 13.5,0 10.5,0    " />
			<polygon
   id="polygon73"
   points="2.5,-154.5 5.5,-154.5 5.5,0 2.5,0    " />
		</g>
	</g>
</pattern>
<pattern
   overflow="visible"
   viewBox="0 -71 71 71"
   id="SVGID_3_"
   patternUnits="userSpaceOnUse"
   height="71"
   width="71"
   y="696"
   x="97">
	<g
   id="g88">
		<polygon
   id="polygon80"
   points="0,0 71,0 71,-71 0,-71   "
   fill="none" />
		<g
   id="g86">
			<polygon
   id="polygon82"
   points="0,0 71,0 71,-71 0,-71    "
   fill="none" />
			<path
   id="path84"
   d="M41.8-35.5c0-3.5-2.8-6.3-6.3-6.3s-6.3,2.8-6.3,6.3s2.8,6.3,6.3,6.3S41.8-32,41.8-35.5z"
   fill="#B3B3B3" />
		</g>
	</g>
</pattern>













<g
   id="g3795">
	<g
   id="g3793">
		<g
   id="g3791">
			<path
   fill="#0d0e13"
   d="m 898.3,515.7 c -2.9,-15.5 -17.7,-102.5 -32,-144.6 -9.4,-27.7 -13.1,-53 -17,-64.9 -12,-35.7 -33,-65.7 -33,-65.7 0,0 -9.5,-13.1 -10.1,-16.3 -0.6,-3.3 -4.7,-8.6 -4.7,-8.6 0,0 -17.4,-5.7 -62.3,-5.7 -44.9,0 -53.7,5 -53.7,5 0,0 -2.4,2.9 -5.9,4.8 -3.5,1.8 -11.7,1.7 -11.7,1.7 h -33.4 c 0,0 -0.6,-0.1 -0.9,0.3 -0.4,0.4 -0.6,2 -0.6,2 H 500 366.9 c 0,0 -0.3,-1.7 -0.6,-2 -0.4,-0.4 -0.9,-0.3 -0.9,-0.3 H 332 c 0,0 -8.2,0.2 -11.7,-1.7 -3.5,-1.8 -5.9,-4.8 -5.9,-4.8 0,0 -8.8,-5 -53.7,-5 -44.8,0 -62.3,5.7 -62.3,5.7 0,0 -4.1,5.3 -4.7,8.6 -0.6,3.3 -10.1,16.3 -10.1,16.3 0,0 -21,30 -33,65.7 -4,11.9 -7.7,37.2 -17,64.9 -14.3,42.1 -29.1,129.1 -32,144.6 -4.3,23.2 -4.6,90.2 -4.6,90.2 0,0 4.5,53.4 36.2,74.9 31.7,21.5 56.7,14 56.7,14 0,0 33.1,-8.2 57.8,-41.9 24.7,-33.7 56.6,-129.2 56.6,-129.2 0,0 2.2,-3 5.7,-5.3 3.5,-2.3 6.3,-2.6 6.3,-2.6 l 183.7,0.1 183.7,-0.1 c 0,0 2.8,0.3 6.3,2.6 3.5,2.3 5.7,5.3 5.7,5.3 0,0 31.9,95.4 56.6,129.2 24.7,33.8 57.8,41.9 57.8,41.9 0,0 25,7.5 56.7,-14 31.7,-21.5 36.2,-74.9 36.2,-74.9 0,0 -0.3,-67 -4.7,-90.2 z"
   id="path3761"
   style="fill:url(#linearGradient4065);fill-opacity:1" />
			<g
   opacity="0.06"
   id="g3765">
				
			<path
   fill="#ffffff"
   d="m 133.6,373.1 c 9.4,-27.7 13.1,-53 17,-64.9 12,-35.7 33,-65.7 33,-65.7 0,0 9.5,-13.1 10.1,-16.3 0.6,-3.3 4.7,-8.6 4.7,-8.6 0,0 17.4,-5.7 62.3,-5.7 44.8,0 53.7,5 53.7,5 0,0 2.4,2.9 5.9,4.8 3.5,1.8 11.7,1.7 11.7,1.7 h 33.4 c 0,0 0.6,-0.1 0.9,0.3 0.4,0.4 0.6,2 0.6,2 H 500 633.1 c 0,0 0.3,-1.7 0.6,-2 0.4,-0.4 0.9,-0.3 0.9,-0.3 H 668 c 0,0 8.2,0.2 11.7,-1.7 3.5,-1.8 5.9,-4.8 5.9,-4.8 0,0 8.8,-5 53.7,-5 44.9,0 62.3,5.7 62.3,5.7 0,0 4.1,5.3 4.7,8.6 0.6,3.3 10.1,16.3 10.1,16.3 0,0 21,30 33,65.7 4,11.9 7.7,37.2 17,64.9 14.3,42.1 29.1,129.1 32,144.6 3.9,20.9 4.6,77.3 4.7,88.3 0,-0.1 0,-0.1 0,-0.1 0,0 -0.3,-66.9 -4.7,-90.1 -2.9,-15.5 -17.7,-102.5 -32,-144.6 -9.4,-27.7 -13.1,-53 -17,-64.9 -12,-35.7 -33,-65.7 -33,-65.7 0,0 -9.5,-13.1 -10.1,-16.3 -0.6,-3.3 -4.7,-8.6 -4.7,-8.6 0,0 -17.4,-5.7 -62.3,-5.7 -44.9,0 -53.7,5 -53.7,5 0,0 -2.4,2.9 -5.9,4.8 -3.5,1.8 -11.7,1.7 -11.7,1.7 h -33.4 c 0,0 -0.6,-0.1 -0.9,0.3 -0.4,0.4 -0.6,2 -0.6,2 H 500 366.9 c 0,0 -0.3,-1.7 -0.6,-2 -0.4,-0.4 -0.9,-0.3 -0.9,-0.3 H 332 c 0,0 -8.2,0.2 -11.7,-1.7 -3.5,-1.8 -5.9,-4.8 -5.9,-4.8 0,0 -8.8,-5 -53.7,-5 -44.8,0 -62.3,5.7 -62.3,5.7 0,0 -4.1,5.3 -4.7,8.6 -0.6,3.3 -10.1,16.3 -10.1,16.3 0,0 -21,30 -33,65.7 -4,11.9 -7.7,37.2 -17,64.9 -14.3,42.1 -29.1,129.1 -32,144.6 -4.3,23.1 -4.6,90.1 -4.6,90.1 v 0.1 c 0.1,-10.9 0.7,-67.4 4.7,-88.3 2.9,-15.4 17.6,-102.5 31.9,-144.6 z"
   id="path3763"
   style="fill:#f202cb;fill-opacity:1" /></g>
			<path
   style="fill:#6c015b;fill-opacity:1"
   fill="#13161f"
   d="m 448.2,457.1 c 0,-42.2 -34.3,-76.5 -76.5,-76.5 -42.2,0 -76.5,34.3 -76.5,76.5 0,0.7 0,1.3 0.1,2 0,0.7 -0.1,1.3 -0.1,2 0,42.2 34.3,76.5 76.5,76.5 42.2,0 76.5,-34.3 76.5,-76.5 0,-0.7 0,-1.3 -0.1,-2 0,-0.7 0.1,-1.4 0.1,-2 z"
   id="path3767" />
			<circle
   style="fill:url(#linearGradient2474);fill-opacity:1"
   fill="#0f1015"
   cx="371.70001"
   cy="453.10001"
   r="73"
   id="circle3769" />
			<circle
   cx="371.70001"
   cy="453.10001"
   r="51.5"
   id="circle3771" />
			<path
   style="fill:#740161;fill-opacity:1"
   fill="#13161f"
   d="m 704.8,457.1 c 0,-42.2 -34.3,-76.5 -76.5,-76.5 -42.2,0 -76.5,34.3 -76.5,76.5 0,0.7 0,1.3 0.1,2 0,0.7 -0.1,1.3 -0.1,2 0,42.2 34.3,76.5 76.5,76.5 42.2,0 76.5,-34.3 76.5,-76.5 0,-0.7 0,-1.3 -0.1,-2 0.1,-0.7 0.1,-1.4 0.1,-2 z"
   id="path3773" />
			<circle
   r="73"
   style="fill:url(#linearGradient2478);fill-opacity:1"
   fill="#0f1015"
   cx="628.29999"
   cy="453.10001"
   id="circle3775" />
			<circle
   cx="628.29999"
   cy="453.10001"
   r="51.5"
   id="circle3777" />
			<path
   style="fill:#f202cb;fill-opacity:1"
   fill="#121212"
   d="m 631.8,225.1 c -0.4,-3.2 -3.3,-5.6 -6.5,-5.6 v 0 H 500 v 0 H 374.7 v 0 c -3.2,0 -6.1,2.3 -6.5,5.6 -0.1,0.7 -0.1,1.4 -0.1,2.1 v 127.4 c 0,8.9 7.2,16.1 16.1,16.1 H 500 v 0 h 115.8 c 8.9,0 16.1,-7.2 16.1,-16.1 V 227.2 c 0.1,-0.7 0,-1.4 -0.1,-2.1 z"
   id="path3779" />
			
			<g
   id="g3789">
				
				<path
   style="fill:#f202cb;fill-opacity:1"
   fill="#1f1f1f"
   d="m 327.4,351.2 9.5,-8.9 c 0.5,-0.5 0.5,-1.2 0,-1.7 l -9.5,-8.9 c -0.7,-0.7 -1.9,-0.2 -1.9,0.8 v 8.9 8.9 c -0.1,1 1.1,1.5 1.9,0.9 z"
   id="path3781" />
				<path
   style="fill:#f202cb;fill-opacity:1"
   fill="#1f1f1f"
   d="m 242,266.9 h 8.9 8.9 c 1,0 1.5,-1.2 0.8,-1.9 l -8.9,-9.5 c -0.5,-0.5 -1.2,-0.5 -1.7,0 l -8.9,9.5 c -0.6,0.7 -0.1,1.9 0.9,1.9 z"
   id="path3783" />
				<path
   style="fill:#f202cb;fill-opacity:1"
   fill="#1f1f1f"
   d="m 174.5,331.7 -9.5,8.9 c -0.5,0.5 -0.5,1.2 0,1.7 l 9.5,8.9 c 0.7,0.7 1.9,0.2 1.9,-0.8 v -8.9 -8.9 c 0,-1.1 -1.2,-1.6 -1.9,-0.9 z"
   id="path3785" />
				<path
   style="fill:#f202cb;fill-opacity:1"
   fill="#1f1f1f"
   d="m 259.8,415.9 h -8.9 -8.9 c -1,0 -1.5,1.2 -0.8,1.9 l 8.9,9.5 c 0.5,0.5 1.2,0.5 1.7,0 l 8.9,-9.5 c 0.6,-0.7 0.1,-1.9 -0.9,-1.9 z"
   id="path3787" />
			</g>
		</g>
	</g>
</g><g
   id="g3847">
	<g
   id="g3799">
		
		
			<pattern
   id="pattern3797"
   xlink:href="#SVGID_1_"
   patternTransform="matrix(0.3298 9.457588e-002 9.457588e-002 -0.3298 -10180.4512 -7431.5161)">
		</pattern>
		
		
	</g>
	<g
   id="g3803">
		
		
			<pattern
   id="pattern3801"
   xlink:href="#SVGID_2_"
   patternTransform="matrix(-0.3298 9.457588e-002 -9.457588e-002 -0.3298 -21159.9766 -7429.6616)">
		</pattern>
		
		
	</g>
	<g
   id="g3811">
		<g
   id="g3809">
			<path
   style="fill:#f202cb;fill-opacity:1"
   d="m 337.5,240.6 c 6.9,0 12.5,5.6 12.5,12.5 v 18.3 c 0,6.9 -5.6,12.5 -12.5,12.5 -6.9,0 -12.5,-5.6 -12.5,-12.5 v -18.3 c 0,-6.9 5.6,-12.5 12.5,-12.5 m 0,-1.7 c -7.8,0 -14.2,6.4 -14.2,14.2 v 18.3 c 0,7.8 6.4,14.2 14.2,14.2 7.8,0 14.2,-6.4 14.2,-14.2 v -18.3 c 0,-7.9 -6.4,-14.2 -14.2,-14.2 z"
   id="path3805" />
			<path
   style="fill:#000000;fill-opacity:1"
   fill="#10111a"
   d="m 337.5,240.6 c -6.9,0 -12.5,5.6 -12.5,12.5 v 18.3 c 0,6.9 5.6,12.5 12.5,12.5 6.9,0 12.5,-5.6 12.5,-12.5 v -18.3 c 0,-6.9 -5.6,-12.5 -12.5,-12.5 z"
   id="path3807" />
		</g>
	</g>
	<g
   id="g3819">
		<g
   id="g3817">
			<path
   style="fill:#f202cb;fill-opacity:1"
   d="m 662.5,240.6 c 6.9,0 12.5,5.6 12.5,12.5 v 18.3 c 0,6.9 -5.6,12.5 -12.5,12.5 v 0 c -6.9,0 -12.5,-5.6 -12.5,-12.5 v -18.3 c 0,-6.9 5.6,-12.5 12.5,-12.5 v 0 m 0,-1.7 c -7.8,0 -14.2,6.4 -14.2,14.2 v 18.3 c 0,7.8 6.4,14.2 14.2,14.2 7.8,0 14.2,-6.4 14.2,-14.2 v -18.3 c 0,-7.9 -6.4,-14.2 -14.2,-14.2 z"
   id="path3813" />
			<path
   style="fill:#000000;fill-opacity:1"
   fill="#10111a"
   d="m 662.5,240.6 c -6.9,0 -12.5,5.6 -12.5,12.5 v 18.3 c 0,6.9 5.6,12.5 12.5,12.5 6.9,0 12.5,-5.6 12.5,-12.5 v -18.3 c 0,-6.9 -5.6,-12.5 -12.5,-12.5 z"
   id="path3815" />
		</g>
	</g>
	<g
   id="g3845">
		<g
   id="g3825">
			<path
   style="fill:#f202cb;fill-opacity:1"
   fill="#1a1a1a"
   d="m 238.2,344.3 c 1.4,-2 1.2,-2.9 1.2,-2.9 0,0 0.2,-0.9 -1.2,-2.9 -1.4,-2 -15,-13.6 -15.7,-14 -0.7,-0.4 -28.5,-2.2 -31.4,1.3 -2.9,3.5 -2.6,15.6 -2.6,15.6 0,0 -0.3,12.1 2.6,15.6 2.9,3.5 30.7,1.7 31.4,1.3 0.7,-0.4 14.3,-12 15.7,-14 z"
   id="path3821" />
			<path
   opacity="0.25"
   enable-background="new    "
   d="m 238.2,344.3 c 1.4,-2 1.2,-2.9 1.2,-2.9 0,0 0.2,-0.9 -1.2,-2.9 -0.9,-1.3 -6.9,-6.6 -11.2,-10.3 -2.1,3.9 -3.4,8.4 -3.4,13.2 0,4.8 1.2,9.3 3.4,13.2 4.3,-3.7 10.3,-9 11.2,-10.3 z"
   id="path3823" />
		<path
   id="path4089"
   d="m 236.28225,344.07066 c 1.28929,-1.84184 1.1051,-2.67066 1.1051,-2.67066 0,0 0.18419,-0.82882 -1.1051,-2.67066 -1.28928,-1.84183 -13.81374,-12.52445 -14.45838,-12.89282 -0.64464,-0.36837 -26.2461,-2.02602 -28.91676,1.19719 -2.67065,3.22321 -2.39438,14.36629 -2.39438,14.36629 0,0 -0.27627,11.14308 2.39438,14.36629 2.67066,3.22321 28.27212,1.56556 28.91676,1.19719 0.64464,-0.36837 13.1691,-11.05099 14.45838,-12.89282 z"
   fill="#1a1a1a"
   style="fill:#000000;fill-opacity:1;stroke-width:0.920916" /></g>
		<g
   id="g3831">
			<path
   style="fill:#f202cb;fill-opacity:1"
   fill="#1a1a1a"
   d="m 248,328.7 c 2,1.4 2.9,1.2 2.9,1.2 0,0 0.9,0.2 2.9,-1.2 2,-1.4 13.6,-15 14,-15.7 0.4,-0.7 2.2,-28.5 -1.3,-31.4 -3.5,-2.9 -15.6,-2.6 -15.6,-2.6 0,0 -12.1,-0.3 -15.6,2.6 -3.5,2.9 -1.7,30.7 -1.3,31.4 0.5,0.7 12,14.3 14,15.7 z"
   id="path3827" />
			<path
   opacity="0.25"
   enable-background="new    "
   d="m 248,328.7 c 2,1.4 2.9,1.2 2.9,1.2 0,0 0.9,0.2 2.9,-1.2 1.3,-0.9 6.6,-6.9 10.3,-11.2 -3.9,-2.1 -8.4,-3.4 -13.2,-3.4 -4.8,0 -9.3,1.2 -13.2,3.4 3.8,4.3 9,10.3 10.3,11.2 z"
   id="path3829" />
		<path
   id="path4087"
   d="m 248.23027,326.77446 c 1.84119,1.28883 2.66973,1.10471 2.66973,1.10471 0,0 0.82854,0.18412 2.66973,-1.10471 1.84119,-1.28883 12.52008,-13.80893 12.88832,-14.45333 0.36823,-0.64442 2.02531,-26.23694 -1.19678,-28.90668 -3.22209,-2.66972 -14.36127,-2.39354 -14.36127,-2.39354 0,0 -11.13918,-0.27618 -14.36127,2.39354 -3.22209,2.66974 -1.56501,28.26226 -1.19678,28.90668 0.46029,0.6444 11.04713,13.1645 12.88832,14.45333 z"
   fill="#1a1a1a"
   style="fill:#000000;fill-opacity:1;stroke-width:0.920595" /></g>
		<g
   id="g3837">
			<path
   style="fill:#f202cb;fill-opacity:1"
   fill="#1a1a1a"
   d="m 310.7,325.9 c -2.9,-3.5 -30.7,-1.7 -31.4,-1.3 -0.7,0.4 -14.3,12 -15.7,14 -1.4,2 -1.2,2.9 -1.2,2.9 0,0 -0.2,0.9 1.2,2.9 1.4,2 15,13.6 15.7,14 0.7,0.4 28.5,2.2 31.4,-1.3 2.9,-3.5 2.6,-15.6 2.6,-15.6 0,0 0.3,-12.1 -2.6,-15.6 z"
   id="path3833" />
			<path
   opacity="0.25"
   enable-background="new    "
   d="m 274.9,328.3 c -4.3,3.7 -10.3,9 -11.2,10.3 -1.4,2 -1.2,2.9 -1.2,2.9 0,0 -0.2,0.9 1.2,2.9 0.9,1.3 6.9,6.6 11.2,10.3 2.1,-3.9 3.4,-8.4 3.4,-13.2 0,-4.8 -1.3,-9.3 -3.4,-13.2 z"
   id="path3835" />
		<path
   id="path4091"
   d="m 308.89294,327.13367 c -2.67066,-3.22321 -28.27219,-1.56556 -28.91683,-1.19719 -0.64465,0.36837 -13.16914,11.05102 -14.45842,12.89286 -1.28929,1.84183 -1.1051,2.67066 -1.1051,2.67066 0,0 -0.18419,0.82883 1.1051,2.67066 1.28928,1.84184 13.81377,12.52449 14.45842,12.89286 0.64464,0.36837 26.24617,2.02602 28.91683,-1.19719 2.67067,-3.22322 2.39439,-14.36633 2.39439,-14.36633 0,0 0.27628,-11.14311 -2.39439,-14.36633 z"
   fill="#1a1a1a"
   style="fill:#000000;fill-opacity:1;stroke-width:0.920918" /></g>
		<g
   id="g3843">
			<path
   style="fill:#f202cb;fill-opacity:1"
   fill="#1a1a1a"
   d="m 253.8,354.2 c -2,-1.4 -2.9,-1.2 -2.9,-1.2 0,0 -0.9,-0.2 -2.9,1.2 -2,1.4 -13.6,15 -14,15.7 -0.4,0.7 -2.2,28.5 1.3,31.4 3.5,2.9 15.6,2.6 15.6,2.6 0,0 12.1,0.3 15.6,-2.6 3.5,-2.9 1.7,-30.7 1.3,-31.4 -0.4,-0.8 -12,-14.3 -14,-15.7 z"
   id="path3839" />
			<path
   opacity="0.25"
   enable-background="new    "
   d="m 253.8,354.2 c -2,-1.4 -2.9,-1.2 -2.9,-1.2 0,0 -0.9,-0.2 -2.9,1.2 -1.3,0.9 -6.6,6.9 -10.3,11.2 3.9,2.1 8.4,3.4 13.2,3.4 4.8,0 9.3,-1.2 13.2,-3.4 -3.7,-4.3 -9,-10.3 -10.3,-11.2 z"
   id="path3841" />
		<path
   id="path4093"
   d="m 253.56939,356.12833 c -1.84096,-1.28867 -2.66939,-1.10457 -2.66939,-1.10457 0,0 -0.82843,-0.1841 -2.66939,1.10457 -1.84096,1.28867 -12.51852,13.80719 -12.88672,14.45153 -0.36818,0.64434 -2.02505,26.23366 1.19663,28.90305 3.22168,2.6694 14.35948,2.39325 14.35948,2.39325 0,0 11.1378,0.27615 14.35948,-2.39325 3.22168,-2.66939 1.56481,-28.25871 1.19663,-28.90305 -0.3682,-0.73639 -11.04576,-13.16286 -12.88672,-14.45153 z"
   fill="#1a1a1a"
   style="fill:#000000;fill-opacity:1;stroke-width:0.92048" /></g>
	</g>
</g><g
   id="g3877">
	<g
   id="g3863">
		<circle
   cx="500"
   cy="413.5"
   r="4.0999999"
   id="circle3849" />
		<circle
   cx="500"
   cy="392.60001"
   r="4.0999999"
   id="circle3851" />
		<circle
   cx="493.10001"
   cy="402.79999"
   r="4.0999999"
   id="circle3853" />
		<circle
   cx="478.39999"
   cy="402.79999"
   r="4.0999999"
   id="circle3855" />
		<circle
   cx="485.70001"
   cy="413.5"
   r="4.0999999"
   id="circle3857" />
		<circle
   cx="485.70001"
   cy="392.60001"
   r="4.0999999"
   id="circle3859" />
		<circle
   cx="471.39999"
   cy="392.60001"
   r="4.0999999"
   id="circle3861" />
	</g>
	<g
   id="g3875">
		<circle
   cx="506.89999"
   cy="402.79999"
   r="4.0999999"
   id="circle3865" />
		<circle
   cx="521.59998"
   cy="402.79999"
   r="4.0999999"
   id="circle3867" />
		<circle
   cx="514.20001"
   cy="413.5"
   r="4.0999999"
   id="circle3869" />
		<circle
   cx="514.20001"
   cy="392.60001"
   r="4.0999999"
   id="circle3871" />
		<circle
   cx="528.59998"
   cy="392.60001"
   r="4.0999999"
   id="circle3873" />
	</g>
</g><g
   opacity="0.12"
   id="g3903">
	<path
   fill="#ffffff"
   d="m 500,416.6 c -2.1,0 -3.8,-1.6 -4.1,-3.6 0,0.2 -0.1,0.3 -0.1,0.5 0,2.3 1.8,4.1 4.1,4.1 2.3,0 4.1,-1.8 4.1,-4.1 0,-0.2 0,-0.3 -0.1,-0.5 -0.1,2 -1.8,3.6 -3.9,3.6 z"
   id="path3879" />
	<path
   fill="#ffffff"
   d="m 500,396.7 c 2.3,0 4.1,-1.8 4.1,-4.1 0,-0.2 0,-0.3 -0.1,-0.5 -0.2,2 -2,3.6 -4.1,3.6 -2.1,0 -3.8,-1.6 -4.1,-3.6 0,0.2 -0.1,0.3 -0.1,0.5 0.2,2.2 2,4.1 4.3,4.1 z"
   id="path3881" />
	<path
   fill="#ffffff"
   d="m 497.2,402.8 c 0,-0.2 0,-0.3 -0.1,-0.5 -0.2,2 -2,3.6 -4.1,3.6 -2.1,0 -3.8,-1.6 -4.1,-3.6 0,0.2 -0.1,0.3 -0.1,0.5 0,2.3 1.8,4.1 4.1,4.1 2.4,0 4.3,-1.8 4.3,-4.1 z"
   id="path3883" />
	<path
   fill="#ffffff"
   d="m 482.4,402.3 c -0.2,2 -2,3.6 -4.1,3.6 -2.1,0 -3.8,-1.6 -4.1,-3.6 0,0.2 -0.1,0.3 -0.1,0.5 0,2.3 1.8,4.1 4.1,4.1 2.3,0 4.1,-1.8 4.1,-4.1 0.2,-0.2 0.2,-0.3 0.1,-0.5 z"
   id="path3885" />
	<path
   fill="#ffffff"
   d="m 485.8,416.6 c -2.1,0 -3.8,-1.6 -4.1,-3.6 0,0.2 -0.1,0.3 -0.1,0.5 0,2.3 1.8,4.1 4.1,4.1 2.3,0 4.1,-1.8 4.1,-4.1 0,-0.2 0,-0.3 -0.1,-0.5 -0.1,2 -1.8,3.6 -3.9,3.6 z"
   id="path3887" />
	<path
   fill="#ffffff"
   d="m 485.8,396.7 c 2.3,0 4.1,-1.8 4.1,-4.1 0,-0.2 0,-0.3 -0.1,-0.5 -0.2,2 -2,3.6 -4.1,3.6 -2.1,0 -3.8,-1.6 -4.1,-3.6 0,0.2 -0.1,0.3 -0.1,0.5 0.1,2.2 2,4.1 4.3,4.1 z"
   id="path3889" />
	<path
   fill="#ffffff"
   d="m 475.6,392.6 c 0,-0.2 0,-0.3 -0.1,-0.5 -0.2,2 -2,3.6 -4.1,3.6 -2.1,0 -3.8,-1.6 -4.1,-3.6 0,0.2 -0.1,0.3 -0.1,0.5 0,2.3 1.8,4.1 4.1,4.1 2.4,0 4.3,-1.9 4.3,-4.1 z"
   id="path3891" />
	<path
   fill="#ffffff"
   d="m 511,402.3 c -0.2,2 -2,3.6 -4.1,3.6 -2.1,0 -3.8,-1.6 -4.1,-3.6 0,0.2 -0.1,0.3 -0.1,0.5 0,2.3 1.8,4.1 4.1,4.1 2.3,0 4.1,-1.8 4.1,-4.1 0.2,-0.2 0.1,-0.3 0.1,-0.5 z"
   id="path3893" />
	<path
   fill="#ffffff"
   d="m 521.6,405.9 c -2.1,0 -3.8,-1.6 -4.1,-3.6 0,0.2 -0.1,0.3 -0.1,0.5 0,2.3 1.8,4.1 4.1,4.1 2.3,0 4.1,-1.8 4.1,-4.1 0,-0.2 0,-0.3 -0.1,-0.5 0,2.1 -1.8,3.6 -3.9,3.6 z"
   id="path3895" />
	<path
   fill="#ffffff"
   d="m 514.3,416.6 c -2.1,0 -3.8,-1.6 -4.1,-3.6 0,0.2 -0.1,0.3 -0.1,0.5 0,2.3 1.8,4.1 4.1,4.1 2.3,0 4.1,-1.8 4.1,-4.1 0,-0.2 0,-0.3 -0.1,-0.5 -0.1,2 -1.8,3.6 -3.9,3.6 z"
   id="path3897" />
	<path
   fill="#ffffff"
   d="m 514.3,396.7 c 2.3,0 4.1,-1.8 4.1,-4.1 0,-0.2 0,-0.3 -0.1,-0.5 -0.2,2 -2,3.6 -4.1,3.6 -2.1,0 -3.8,-1.6 -4.1,-3.6 0,0.2 -0.1,0.3 -0.1,0.5 0.1,2.2 2,4.1 4.3,4.1 z"
   id="path3899" />
	<path
   fill="#ffffff"
   d="m 528.6,395.7 c -2.1,0 -3.8,-1.6 -4.1,-3.6 0,0.2 -0.1,0.3 -0.1,0.5 0,2.3 1.8,4.1 4.1,4.1 2.3,0 4.1,-1.8 4.1,-4.1 0,-0.2 0,-0.3 -0.1,-0.5 -0.1,2 -1.8,3.6 -3.9,3.6 z"
   id="path3901" />
</g><path
   fill="#0b0b0f"
   d="m 533.60003,518.1 h -67.9 c -2.8,0 -4.6,0.6 -4.6,-2.2 v 0 c 0,-2.8 2.3,-5 5,-5 h 67.9 c 2.8,0 5,2.3 5,5 v 0 c 0.1,2.7 -2.6,2.2 -5.4,2.2 z"
   id="path3905" /><path
   d="m 505.30003,515.9 h -36.5 c -0.5,0 -0.9,-0.4 -0.9,-0.9 v 0 c 0,-1.1 0.9,-2 2,-2 h 34.2 c 1.1,0 2,0.9 2,2 v 0 c 0.1,0.5 -0.3,0.9 -0.8,0.9 z"
   id="path3907" /><path
   d="m 527.50003,516.7 h -4.2 c -0.9,0 -1.7,-0.8 -1.7,-1.7 v 0 c 0,-1.6 1.3,-2.8 2.8,-2.8 h 1.9 c 1.6,0 2.8,1.3 2.8,2.8 v 0 c 0.1,1 -0.6,1.7 -1.6,1.7 z"
   id="path3909" /><g
   id="g3921">
	<g
   id="g3919">
		<path
   style="fill:#000000"
   fill="#080808"
   d="m 627.4,221.4 c 0,-1 -0.8,-1.9 -1.9,-1.9 H 500 v 0 H 374.4 c -1,0 -1.9,0.8 -1.9,1.9 v 6 123.2 c 0,8.6 7,15.6 15.6,15.6 H 500 v 0 h 111.9 c 8.6,0 15.6,-7 15.6,-15.6 V 227.5 Z"
   id="path3911" />
		<g
   opacity="0.12"
   id="g3917">
			
				<pattern
   id="pattern3913"
   xlink:href="#SVGID_3_"
   patternTransform="matrix(0.1017 0 0 -0.1017 -13979.8896 -2289.7598)"
   opacity="0.12">
			</pattern>
			<path
   fill="url(#SVGID_6_)"
   d="m 372.5,350.6 c 0,8.6 7,15.6 15.6,15.6 H 500 v 0 h 111.9 c 8.6,0 15.6,-7 15.6,-15.6 V 244.1 h -255 z"
   id="path3915" />
		</g>
	</g>
</g><g
   id="g3965">
	<g
   id="g3963">
		<g
   id="g3931">
			<g
   id="g3927">
				<path
   style="fill:#000000;fill-opacity:1"
   fill="#1a1a1a"
   d="m 806.9,368.1 c -14.5,0 -26.3,-11.8 -26.3,-26.3 0,-14.5 11.8,-26.3 26.3,-26.3 14.5,0 26.3,11.8 26.3,26.3 0,14.5 -11.8,26.3 -26.3,26.3 z"
   id="path3923" />
				<path
   style="fill:#f202cb;fill-opacity:1"
   fill="#0f0f0f"
   d="m 806.9,316.6 c 13.9,0 25.3,11.3 25.3,25.3 0,14 -11.3,25.2 -25.3,25.2 -14,0 -25.3,-11.3 -25.3,-25.3 0,-14 11.4,-25.2 25.3,-25.2 m 0,-2 c -15,0 -27.3,12.2 -27.3,27.3 0,15.1 12.2,27.3 27.3,27.3 15.1,0 27.3,-12.2 27.3,-27.3 0,-15.1 -12.3,-27.3 -27.3,-27.3 z"
   id="path3925" />
			</g>
			<path
   style="fill:#f202cb;fill-opacity:1"
   fill="#ff6666"
   d="m 806.9,323 c -10.4,0 -18.9,8.5 -18.9,18.9 0,10.4 8.5,18.9 18.9,18.9 10.4,0 18.9,-8.5 18.9,-18.9 0,-10.4 -8.4,-18.9 -18.9,-18.9 z m 0,34.9 c -8.9,0 -16,-7.2 -16,-16 0,-8.9 7.2,-16 16,-16 8.8,0 16,7.2 16,16 0.1,8.9 -7.1,16 -16,16 z"
   id="path3929" />
		</g>
		<g
   id="g3941">
			<g
   id="g3937">
				<path
   style="fill:#000000;fill-opacity:1"
   fill="#1a1a1a"
   d="m 749.3,425.7 c -14.5,0 -26.3,-11.8 -26.3,-26.3 0,-14.5 11.8,-26.3 26.3,-26.3 14.5,0 26.3,11.8 26.3,26.3 0,14.5 -11.8,26.3 -26.3,26.3 z"
   id="path3933" />
				<path
   style="fill:#f202cb;fill-opacity:1"
   fill="#0f0f0f"
   d="m 749.3,374.2 c 13.9,0 25.3,11.3 25.3,25.3 0,14 -11.3,25.3 -25.3,25.3 -14,0 -25.3,-11.3 -25.3,-25.3 0,-14 11.4,-25.3 25.3,-25.3 m 0,-2 c -15,0 -27.3,12.2 -27.3,27.3 0,15 12.2,27.3 27.3,27.3 15.1,0 27.3,-12.2 27.3,-27.3 0,-15 -12.2,-27.3 -27.3,-27.3 z"
   id="path3935" />
			</g>
			<polygon
   style="fill:#f202cb;fill-opacity:1"
   fill="#7cb2e8"
   points="735,411.8 737,413.8 749.3,401.5 761.7,413.8 763.7,411.8 751.3,399.5 763.7,387.1 761.7,385.1 749.3,397.5 737,385.1 735,387.1 747.3,399.5 "
   id="polygon3939" />
		</g>
		<g
   id="g3951">
			<g
   id="g3947">
				<path
   style="fill:#000000;fill-opacity:1"
   fill="#1a1a1a"
   d="m 691.8,368.1 c -14.5,0 -26.3,-11.8 -26.3,-26.3 0,-14.5 11.8,-26.3 26.3,-26.3 14.5,0 26.3,11.8 26.3,26.3 0,14.5 -11.9,26.3 -26.3,26.3 z"
   id="path3943" />
				<path
   style="fill:#f202cb;fill-opacity:1"
   fill="#0f0f0f"
   d="m 691.7,316.6 c 13.9,0 25.3,11.3 25.3,25.3 0,14 -11.3,25.2 -25.3,25.2 -14,0 -25.3,-11.3 -25.3,-25.3 0,-14 11.4,-25.2 25.3,-25.2 m 0,-2 c -15,0 -27.3,12.2 -27.3,27.3 0,15.1 12.2,27.3 27.3,27.3 15.1,0 27.3,-12.2 27.3,-27.3 0,-15.1 -12.2,-27.3 -27.3,-27.3 z"
   id="path3945" />
			</g>
			<path
   style="fill:#f202cb;fill-opacity:1"
   fill="#ff69f8"
   d="m 703.3,327.5 h -23 -2.8 v 2.8 23 2.8 h 2.8 23 2.8 v -2.8 -23 -2.8 z m 0,25.9 h -23 v -23 h 23 z"
   id="path3949" />
		</g>
		<g
   id="g3961">
			<g
   id="g3957">
				<path
   style="fill:#000000;fill-opacity:1"
   fill="#1a1a1a"
   d="m 749.3,310.6 c -14.5,0 -26.3,-11.8 -26.3,-26.3 0,-14.5 11.8,-26.3 26.3,-26.3 14.5,0 26.3,11.8 26.3,26.3 0,14.5 -11.8,26.3 -26.3,26.3 z"
   id="path3953" />
				<path
   style="fill:#f202cb;fill-opacity:1"
   fill="#0f0f0f"
   d="m 749.3,259.1 c 13.9,0 25.3,11.3 25.3,25.3 0,14 -11.3,25.3 -25.3,25.3 -14,0 -25.3,-11.3 -25.3,-25.3 0,-14 11.4,-25.3 25.3,-25.3 m 0,-2 c -15,0 -27.3,12.2 -27.3,27.3 0,15.1 12.2,27.3 27.3,27.3 15.1,0 27.3,-12.2 27.3,-27.3 0,-15.1 -12.2,-27.3 -27.3,-27.3 z"
   id="path3955" />
			</g>
			<path
   style="fill:#f202cb;fill-opacity:1"
   fill="#40e2a0"
   d="m 765.3,292.3 -16,-27.6 -16,27.6 -1.6,2.8 h 3.3 14.3 14.3 3.3 z m -16,0 h -12.7 l 12.7,-21.9 12.7,21.9 z"
   id="path3959" />
		</g>
	</g>
</g><g
   id="g3977">
	<circle
   fill="#050505"
   stroke="#000000"
   stroke-width="2"
   stroke-miterlimit="10"
   cx="500"
   cy="459.10001"
   r="20.200001"
   id="circle3967" />
	<g
   id="g3975">
		<path
   fill="#f2f2f2"
   d="m 501.1,465.7 v -2.8 -3.5 -6.5 c 0,-0.5 0.1,-0.8 0.3,-1 0.1,-0.2 0.4,-0.3 0.7,-0.2 0.6,0.2 0.9,0.7 0.9,1.7 v 6.9 c 0.8,0.4 1.5,0.5 2.1,0.5 0.6,0 1.2,-0.2 1.6,-0.5 1,-0.7 1.5,-1.9 1.5,-3.7 0,-1.9 -0.4,-3.4 -1.2,-4.3 -0.8,-1 -2.1,-1.9 -4.1,-2.6 -1.3,-0.4 -2.5,-0.8 -3.6,-1.1 -1.1,-0.3 -2,-0.5 -2.9,-0.7 v 12.2 0 2.7 0 1.7 0 2.5 0 1.5 l 4.7,1.5 v -3.6 0 z"
   id="path3969" />
		<path
   fill="#f2f2f2"
   d="m 496,464.7 -1.7,0.6 -0.9,0.4 -1.6,0.3 -1.5,-0.2 c -0.3,-0.2 -0.4,-0.4 -0.2,-0.6 0.1,-0.1 0.2,-0.1 0.3,-0.2 0.1,-0.1 0.3,-0.1 0.4,-0.2 l 1.1,-0.4 4.1,-1.5 v -2.7 l -1.7,0.5 -5.5,2 -1,0.4 c -1.5,0.6 -2.2,1.2 -2.2,1.8 0.1,0.8 1,1.5 2.7,1.9 0.7,0.2 1.4,0.3 2.1,0.4 0.7,0.1 1.4,0.1 2.2,0.1 1,0 2.1,-0.1 3.3,-0.3 v -2.3 z"
   id="path3971" />
		<path
   fill="#f2f2f2"
   d="m 511.8,462.4 c -0.9,-0.3 -1.7,-0.5 -2.5,-0.6 -0.8,-0.1 -1.7,-0.2 -2.5,-0.1 -0.9,0 -1.9,0.2 -2.8,0.3 -0.8,0.2 -1.7,0.4 -2.6,0.8 v 2.8 l 3.9,-1.4 1.6,-0.5 1.1,-0.3 h 1.4 c 0.3,0.1 0.6,0.2 0.7,0.4 0,0.2 -0.2,0.4 -0.8,0.6 l -1.4,0.5 -6.5,2.4 v 2.7 l 3.5,-1.3 6.4,-2.3 0.7,-0.4 c 1.5,-0.5 2.2,-1.2 2.2,-1.9 0,-0.6 -0.8,-1.2 -2.4,-1.7 z"
   id="path3973" />
	</g>
</g><g
   id="g3995">
	<g
   id="g3985">
		<g
   id="g3983">
			<path
   fill="#0a0a0a"
   d="m 794.2,207 c 0,-0.8 -0.4,-1.5 -1.1,-1.9 -4.5,-2.9 -23.4,-13.6 -51.5,-13.6 -26.9,0 -41.1,5.9 -45.1,8 -0.8,0.4 -1.2,1.2 -1.2,2 0,0 9.8,-2.9 47.5,-2.9 37.7,0 51.4,8.4 51.4,8.4 z"
   id="path3979"
   style="fill:#000000;fill-opacity:1" />
			<path
   style="fill:#0a0a0a;fill-opacity:1"
   fill="#121212"
   d="m 794.1,213.9 v 0 -6.9 c 0,0 -13.7,-8.4 -51.4,-8.4 -37.8,0 -47.5,2.9 -47.5,2.9 v 11 0 c 7.7,-1.3 21.2,-2.6 44.1,-2.6 28.5,0.1 45.9,2.4 54.8,4 z"
   id="path3981" />
		</g>
	</g>
	<g
   id="g3993">
		<g
   id="g3991">
			<path
   fill="#0a0a0a"
   d="m 205.8,207 c 0,-0.8 0.4,-1.5 1.1,-1.9 4.5,-2.9 23.4,-13.6 51.5,-13.6 26.9,0 41.1,5.9 45.1,8 0.8,0.4 1.2,1.2 1.2,2 0,0 -9.8,-2.9 -47.5,-2.9 -37.7,0 -51.4,8.4 -51.4,8.4 z"
   id="path3987"
   style="fill:#000000;fill-opacity:1" />
			<path
   style="fill:#0a0a0a;fill-opacity:1"
   fill="#121212"
   d="m 205.9,213.9 v 0 -6.9 c 0,0 13.7,-8.4 51.4,-8.4 37.8,0 47.5,2.9 47.5,2.9 v 11 0 c -7.7,-1.3 -21.2,-2.6 -44.1,-2.6 -28.5,0.1 -45.9,2.4 -54.8,4 z"
   id="path3989" />
		</g>
	</g>
</g><g
   id="g4033">
	<g
   id="g4013">
		<g
   id="g4011">
			<g
   id="g4001">
				<path
   style="fill:#000000"
   fill="#121212"
   d="m 794.2,187.9 c 0,0 -32.7,-3.2 -50.6,-3.2 -17.9,0 -48.4,2.4 -48.4,2.4 0,0 3.1,-44.7 4.8,-52 1.6,-7.3 7.7,-21.3 16.9,-27.9 9.2,-6.6 11.9,-10.1 22.7,-10.1 10.8,0 25.4,6.4 34.6,21.4 9.3,15 20,69.4 20,69.4 z"
   id="path3997" />
				<path
   fill="#0a0a0a"
   d="m 695.7,180.3 c 0,0 26.1,-4.4 49,-4.4 22.8,0 47.9,4.4 47.9,4.4 1,4.7 1.6,7.6 1.6,7.6 0,0 -32.7,-3.2 -50.6,-3.2 -17.9,0 -48.4,2.4 -48.4,2.4 0,0 0.2,-2.7 0.5,-6.8 z"
   id="path3999" />
			</g>
			<g
   opacity="0.08"
   id="g4009">
				<g
   id="g4005">
					<path
   fill="#ffffff"
   d="m 745.7,162.8 c -2.1,1.7 -3.2,2.6 -3.2,2.6 -1.2,1.2 -1.9,2.7 -2,4.5 h 9.8 v -2.6 H 744 c 0.3,-0.5 1,-1.2 2.1,-1.9 1.4,-0.9 2.3,-1.6 2.7,-2.1 0.9,-1 1.3,-2.1 1.3,-3.3 0,-1.4 -0.5,-2.5 -1.4,-3.3 -0.9,-0.8 -2.1,-1.2 -3.5,-1.2 -3.1,0 -4.7,1.7 -4.7,5 h 2.7 c 0,-1.8 0.7,-2.7 2.1,-2.7 1.3,0 2,0.7 2,2.1 0.2,1.1 -0.4,2 -1.6,2.9 z"
   id="path4003" />
				</g>
				<path
   fill="#ffffff"
   d="m 728.1,164.3 h 3 c 1.5,0 2.3,0.6 2.4,1.9 0.1,1.2 0.2,2.5 0.3,3.8 h 3.3 v -0.4 c -0.5,-0.2 -0.7,-0.7 -0.7,-1.5 0,-0.2 0,-0.4 0.1,-0.8 v -0.7 c 0,-1.7 -0.6,-2.9 -1.8,-3.5 1.4,-0.5 2.2,-1.6 2.2,-3.4 0,-1.3 -0.4,-2.3 -1.3,-3 -0.8,-0.7 -1.9,-1 -3.2,-1 h -7.3 V 170 h 3 z m 0,-6.2 h 3.7 c 1.4,0 2.1,0.6 2.1,1.9 0,1.3 -0.8,1.9 -2.3,1.9 h -3.5 z"
   id="path4007" />
			</g>
		</g>
	</g>
	<g
   id="g4031">
		<g
   id="g4029">
			<g
   id="g4019">
				<path
   style="fill:#000000"
   fill="#121212"
   d="m 205.8,187.9 c 0,0 32.7,-3.2 50.6,-3.2 17.9,0 48.3,2.4 48.3,2.4 0,0 -3.1,-44.7 -4.8,-52 -1.6,-7.3 -7.7,-21.3 -16.9,-27.9 -9.1,-6.7 -11.8,-10.1 -22.6,-10.1 -10.8,0 -25.4,6.4 -34.6,21.4 -9.2,15 -20,69.4 -20,69.4 z"
   id="path4015" />
				<path
   fill="#0a0a0a"
   d="m 304.3,180.3 c 0,0 -26.1,-4.4 -49,-4.4 -22.8,0 -47.9,4.4 -47.9,4.4 -1,4.7 -1.6,7.6 -1.6,7.6 0,0 32.7,-3.2 50.6,-3.2 17.9,0 48.3,2.4 48.3,2.4 0,0 -0.1,-2.7 -0.4,-6.8 z"
   id="path4017" />
			</g>
			<g
   opacity="0.08"
   id="g4027">
				<g
   id="g4023">
					<path
   fill="#ffffff"
   d="m 270.3,162.8 c -2.1,1.7 -3.2,2.6 -3.2,2.6 -1.2,1.2 -1.9,2.7 -2,4.5 h 9.8 v -2.6 h -6.2 c 0.3,-0.5 1,-1.2 2.1,-1.9 1.4,-0.9 2.3,-1.6 2.7,-2.1 0.9,-1 1.3,-2.1 1.3,-3.3 0,-1.4 -0.5,-2.5 -1.4,-3.3 -0.9,-0.8 -2.1,-1.2 -3.5,-1.2 -3.1,0 -4.7,1.7 -4.7,5 h 2.7 c 0,-1.8 0.7,-2.7 2.1,-2.7 1.3,0 2,0.7 2,2.1 0.1,1.1 -0.5,2 -1.7,2.9 z"
   id="path4021" />
				</g>
				<polygon
   fill="#ffffff"
   points="261.8,167.3 254.8,167.3 254.8,155.6 251.7,155.6 251.7,169.9 261.8,169.9 "
   id="polygon4025" />
			</g>
		</g>
	</g>
</g><g
   id="g4063">
	<g
   id="g4049">
		<path
   style="fill:#f202cb;fill-opacity:1"
   fill="#cccccc"
   d="m 644.6,231.7 c 0,2.1 -1.5,3.8 -4.1,3.8 -2.6,0 -4.1,-1.7 -4.1,-3.8 0,-2 1.5,-3.8 4.1,-3.8 2.6,0 4.1,1.7 4.1,3.8 z m -6.7,0 c 0,1.4 0.8,2.7 2.6,2.7 1.8,0 2.6,-1.4 2.6,-2.7 0,-1.4 -0.8,-2.7 -2.6,-2.7 -1.8,0 -2.6,1.3 -2.6,2.7 z"
   id="path4035" />
		<path
   style="fill:#f202cb;fill-opacity:1"
   fill="#cccccc"
   d="m 645.9,228.1 h 3.8 c 2.4,0 2.9,1.3 2.9,2.2 0,0.9 -0.5,2.2 -2.9,2.2 h -2.3 v 2.8 h -1.5 z m 1.5,3.4 h 2.2 c 0.7,0 1.5,-0.3 1.5,-1.2 0,-0.9 -0.7,-1.2 -1.5,-1.2 h -2.2 z"
   id="path4037" />
		<path
   style="fill:#f202cb;fill-opacity:1"
   fill="#cccccc"
   d="m 653.1,228.1 h 6.9 v 1.1 h -2.7 v 6.1 h -1.5 v -6.2 h -2.7 z"
   id="path4039" />
		<path
   style="fill:#f202cb;fill-opacity:1"
   fill="#cccccc"
   d="m 661.1,228.1 h 1.5 v 7.2 h -1.5 z"
   id="path4041" />
		<path
   style="fill:#f202cb;fill-opacity:1"
   fill="#cccccc"
   d="m 672.1,231.7 c 0,2.1 -1.5,3.8 -4.1,3.8 -2.6,0 -4.1,-1.7 -4.1,-3.8 0,-2 1.5,-3.8 4.1,-3.8 2.6,0 4.1,1.7 4.1,3.8 z m -6.7,0 c 0,1.4 0.8,2.7 2.6,2.7 1.8,0 2.6,-1.4 2.6,-2.7 0,-1.4 -0.8,-2.7 -2.6,-2.7 -1.8,0 -2.6,1.3 -2.6,2.7 z"
   id="path4043" />
		<path
   style="fill:#f202cb;fill-opacity:1"
   fill="#cccccc"
   d="m 673.5,228.1 h 1.6 l 3.9,5.3 v 0 -5.3 h 1.4 v 7.2 h -1.6 l -3.9,-5.3 v 0 5.3 h -1.4 z"
   id="path4045" />
		<path
   style="fill:#f202cb;fill-opacity:1"
   fill="#cccccc"
   d="m 683.2,232.9 c 0,1.1 1,1.5 2.2,1.5 1.3,0 1.8,-0.6 1.8,-1.1 0,-0.6 -0.4,-0.8 -0.7,-0.9 -0.6,-0.2 -1.4,-0.3 -2.6,-0.6 -1.5,-0.3 -1.9,-1.1 -1.9,-1.8 0,-1.5 1.6,-2.1 3.1,-2.1 1.8,0 3.3,0.8 3.3,2.3 h -1.5 c -0.1,-0.9 -0.8,-1.3 -1.8,-1.3 -0.7,0 -1.6,0.2 -1.6,0.9 0,0.5 0.4,0.8 1,0.9 0.1,0 2,0.4 2.5,0.6 1.1,0.3 1.7,1.1 1.7,1.8 0,1.6 -1.7,2.3 -3.4,2.3 -2,0 -3.5,-0.8 -3.6,-2.6 h 1.5 z"
   id="path4047" />
	</g>
	<g
   id="g4061">
		<path
   style="fill:#f202cb;fill-opacity:1"
   fill="#cccccc"
   d="m 319.2,232.9 c 0,1.1 1,1.5 2.2,1.5 1.3,0 1.8,-0.6 1.8,-1.1 0,-0.6 -0.4,-0.8 -0.7,-0.9 -0.6,-0.2 -1.4,-0.3 -2.6,-0.6 -1.5,-0.3 -1.9,-1.1 -1.9,-1.8 0,-1.5 1.6,-2.1 3.1,-2.1 1.8,0 3.3,0.8 3.3,2.3 h -1.5 c -0.1,-0.9 -0.8,-1.3 -1.8,-1.3 -0.7,0 -1.6,0.2 -1.6,0.9 0,0.5 0.4,0.8 1,0.9 0.1,0 2,0.4 2.5,0.6 1.1,0.3 1.7,1.1 1.7,1.8 0,1.6 -1.7,2.3 -3.4,2.3 -2,0 -3.5,-0.8 -3.6,-2.6 h 1.5 z"
   id="path4051" />
		<path
   style="fill:#f202cb;fill-opacity:1"
   fill="#cccccc"
   d="m 325.9,228.1 h 1.5 v 2.9 h 3.9 v -2.9 h 1.5 v 7.2 h -1.5 v -3.2 h -3.9 v 3.2 h -1.5 z"
   id="path4053" />
		<path
   style="fill:#f202cb;fill-opacity:1"
   fill="#cccccc"
   d="m 336.9,228.1 h 1.6 l 3.3,7.2 h -1.6 l -0.8,-1.9 H 336 l -0.8,1.9 h -1.5 z m -0.5,4.3 h 2.6 l -1.3,-3.1 v 0 z"
   id="path4055" />
		<path
   style="fill:#f202cb;fill-opacity:1"
   fill="#cccccc"
   d="m 342.6,228.1 h 4.1 c 1.9,0 2.8,0.7 2.8,1.9 0,1.4 -1.1,1.7 -1.4,1.8 v 0 c 0.5,0.1 1.3,0.4 1.3,1.5 0,0.8 0.1,1.6 0.5,1.9 h -1.6 c -0.2,-0.3 -0.2,-0.7 -0.2,-1.1 0,-1.3 -0.3,-1.9 -1.7,-1.9 h -2.2 v 3 h -1.5 v -7.1 z m 1.5,3.2 h 2.5 c 1,0 1.5,-0.4 1.5,-1.1 0,-0.9 -0.7,-1.1 -1.5,-1.1 h -2.4 v 2.2 z"
   id="path4057" />
		<path
   style="fill:#f202cb;fill-opacity:1"
   fill="#cccccc"
   d="m 351.1,228.1 h 6.2 v 1.1 h -4.7 v 1.9 h 4.3 v 1 h -4.3 v 2.1 h 4.7 v 1.1 h -6.2 z"
   id="path4059" />
	</g>
</g></svg>
