<?xml version="1.0" encoding="UTF-8" standalone="no"?>
<svg
   xmlns:dc="http://purl.org/dc/elements/1.1/"
   xmlns:cc="http://creativecommons.org/ns#"
   xmlns:rdf="http://www.w3.org/1999/02/22-rdf-syntax-ns#"
   xmlns:svg="http://www.w3.org/2000/svg"
   xmlns="http://www.w3.org/2000/svg"
   xmlns:xlink="http://www.w3.org/1999/xlink"
   xmlns:sodipodi="http://sodipodi.sourceforge.net/DTD/sodipodi-0.dtd"
   xmlns:inkscape="http://www.inkscape.org/namespaces/inkscape"
   inkscape:version="1.0 (4035a4fb49, 2020-05-01)"
   sodipodi:docname="auraaDpad.svg"
   xml:space="preserve"
   enable-background="new -432 743.3 178.5 104"
   viewBox="-432 743.3 178.5 104"
   height="104px"
   width="178.5px"
   y="0px"
   x="0px"
   id="Layer_1"
   version="1.1"><metadata
   id="metadata59"><rdf:RDF><cc:Work
       rdf:about=""><dc:format>image/svg+xml</dc:format><dc:type
         rdf:resource="http://purl.org/dc/dcmitype/StillImage" /><dc:title /></cc:Work></rdf:RDF></metadata><defs
   id="defs57" /><sodipodi:namedview
   inkscape:current-layer="Layer_1"
   inkscape:window-maximized="1"
   inkscape:window-y="-8"
   inkscape:window-x="-8"
   inkscape:cy="23.873204"
   inkscape:cx="183.43738"
   inkscape:zoom="8.3109808"
   showgrid="false"
   id="namedview55"
   inkscape:window-height="1017"
   inkscape:window-width="1920"
   inkscape:pageshadow="2"
   inkscape:pageopacity="0"
   guidetolerance="10"
   gridtolerance="10"
   objecttolerance="10"
   borderopacity="1"
   bordercolor="#666666"
   pagecolor="#ffffff"
   inkscape:document-rotation="0"
   inkscape:snap-smooth-nodes="true" />
<g
   id="g26">
	<g
   id="g6">
		<path
   id="path2"
   d="M-307.5,763.9c1.4-2,1.2-2.9,1.2-2.9s0.2-0.9-1.2-2.9s-15-13.6-15.7-14c-0.7-0.4-28.5-2.2-31.4,1.3    s-2.6,15.6-2.6,15.6s-0.3,12.1,2.6,15.6c2.9,3.5,30.7,1.7,31.4,1.3S-308.9,765.9-307.5,763.9z"
   fill="#1A1A1A"
   style="fill:#f202cb;fill-opacity:1" />
		<path
   id="path4"
   d="M-307.5,763.9c1.4-2,1.2-2.9,1.2-2.9s0.2-0.9-1.2-2.9    c-0.9-1.3-6.9-6.6-11.2-10.3c-2.1,3.9-3.4,8.4-3.4,13.2c0,4.8,1.2,9.3,3.4,13.2C-314.4,770.5-308.4,765.2-307.5,763.9z"
   enable-background="new    "
   opacity="0.25" />
	</g>
	<g
   id="g12">
		<path
   id="path8"
   d="M-379.8,793c2,1.4,2.9,1.2,2.9,1.2s0.9,0.2,2.9-1.2s13.6-15,14-15.7s2.2-28.5-1.3-31.4    c-3.5-2.9-15.6-2.6-15.6-2.6s-12.1-0.2-15.6,2.6c-3.5,2.8-1.7,30.7-1.3,31.4C-393.4,778-381.8,791.6-379.8,793z"
   fill="#1A1A1A"
   style="fill:#f202cb;fill-opacity:1" />
		<path
   id="path10"
   d="M-379.8,793c2,1.4,2.9,1.2,2.9,1.2s0.9,0.2,2.9-1.2    c1.3-0.9,6.6-6.9,10.3-11.2c-3.9-2.1-8.4-3.4-13.2-3.4c-4.8,0-9.3,1.2-13.2,3.4C-386.4,786.1-381.1,792.1-379.8,793z"
   enable-background="new    "
   opacity="0.25" />
	</g>
	<g
   id="g18">
		<path
   style="fill:#f202cb;fill-opacity:1"
   id="path14"
   d="M-256.1,745.5c-2.9-3.5-30.7-1.7-31.4-1.3c-0.7,0.4-14.3,12-15.7,14s-1.2,2.9-1.2,2.9s-0.2,0.9,1.2,2.9    s15,13.6,15.7,14c0.7,0.4,28.5,2.2,31.4-1.3c2.9-3.5,2.6-15.6,2.6-15.6S-253.2,749-256.1,745.5z"
   fill="#1A1A1A" />
		
	</g>
	<g
   id="g24">
		<path
   id="path20"
   d="M-411.4,744.5c-2-1.4-2.9-1.2-2.9-1.2s-0.9-0.2-2.9,1.2s-13.6,15-14,15.7s-2.2,28.5,1.3,31.4    c3.5,2.9,15.6,2.6,15.6,2.6s12.1,0.3,15.6-2.6c3.5-2.9,1.7-30.7,1.3-31.4C-397.8,759.5-409.4,745.9-411.4,744.5z"
   fill="#1A1A1A"
   style="fill:#f202cb;fill-opacity:1" />
		<path
   id="path22"
   d="M-411.4,744.5c-2-1.4-2.9-1.2-2.9-1.2s-0.9-0.2-2.9,1.2    c-1.3,0.9-6.6,6.9-10.3,11.2c3.9,2.1,8.4,3.4,13.2,3.4c4.8,0,9.3-1.2,13.2-3.4C-404.8,751.4-410.1,745.4-411.4,744.5z"
   enable-background="new    "
   opacity="0.25" />
	</g>
</g>
<g
   id="g52">
	<g
   id="g32">
		<path
   style="fill:#000000;fill-opacity:1"
   id="path28"
   d="M-307.5,816.9c1.4-2,1.2-2.9,1.2-2.9s0.2-0.9-1.2-2.9s-15-13.6-15.7-14c-0.7-0.4-28.5-2.2-31.4,1.3    s-2.6,15.6-2.6,15.6s-0.3,12.1,2.6,15.6c2.9,3.5,30.7,1.7,31.4,1.3S-308.9,818.9-307.5,816.9z"
   fill="#E6E6E6" />
		
	</g>
	<g
   id="g38">
		<path
   style="fill:#000000;fill-opacity:1"
   id="path34"
   d="M-379.8,846c2,1.4,2.9,1.2,2.9,1.2s0.9,0.2,2.9-1.2s13.6-15,14-15.7s2.2-28.5-1.3-31.4    c-3.5-2.9-15.6-2.6-15.6-2.6s-12.1-0.2-15.6,2.6s-1.7,30.7-1.3,31.4C-393.4,831-381.8,844.6-379.8,846z"
   fill="#E6E6E6" />
		
	</g>
	<g
   id="g44">
		<path
   style="fill:#000000;fill-opacity:1"
   id="path40"
   d="M-256.1,798.4c-2.9-3.5-30.7-1.7-31.4-1.3c-0.7,0.4-14.3,12-15.7,14c-1.4,2-1.2,2.9-1.2,2.9    s-0.2,0.9,1.2,2.9s15,13.6,15.7,14c0.7,0.4,28.5,2.2,31.4-1.3c2.9-3.5,2.6-15.6,2.6-15.6S-253.2,801.9-256.1,798.4z"
   fill="#E6E6E6" />
		
	</g>
	<g
   id="g50">
		<path
   style="fill:#000000;fill-opacity:1"
   id="path46"
   d="M-411.4,797.5c-2-1.4-2.9-1.2-2.9-1.2s-0.9-0.2-2.9,1.2c-2,1.4-13.6,15-14,15.7s-2.2,28.5,1.3,31.4    c3.5,2.9,15.6,2.6,15.6,2.6s12.1,0.3,15.6-2.6c3.5-2.9,1.7-30.7,1.3-31.4C-397.8,812.5-409.4,798.9-411.4,797.5z"
   fill="#E6E6E6" />
		
	</g>
</g>
<g
   id="g3799"
   transform="translate(-184.25352,383.29479)"><pattern
     id="pattern3797"
     xlink:href="#SVGID_1_"
     patternTransform="matrix(0.3298 9.457588e-002 9.457588e-002 -0.3298 -10180.4512 -7431.5161)" /></g><g
   id="g3803"
   transform="translate(-184.25352,383.29479)"><pattern
     id="pattern3801"
     xlink:href="#SVGID_2_"
     patternTransform="matrix(-0.3298 9.457588e-002 -9.457588e-002 -0.3298 -21159.9766 -7429.6616)" /></g><path
   id="path6600"
   d="m -301.28225,763.77066 c -1.28929,-1.84184 -1.1051,-2.67066 -1.1051,-2.67066 0,0 -0.18419,-0.82882 1.1051,-2.67066 1.28928,-1.84183 13.81374,-12.52445 14.45838,-12.89282 0.64464,-0.36837 26.2461,-2.02602 28.91676,1.19719 2.67065,3.22321 2.39438,14.36629 2.39438,14.36629 0,0 0.27627,11.14308 -2.39438,14.36629 -2.67066,3.22321 -28.27212,1.56556 -28.91676,1.19719 -0.64464,-0.36837 -13.1691,-11.05099 -14.45838,-12.89282 z"
   fill="#1a1a1a"
   style="fill:#000000;fill-opacity:1;stroke-width:0.920916" /><g
   id="g6812"><path
     id="path6596"
     d="m -309.41775,763.67066 c 1.28929,-1.84184 1.1051,-2.67066 1.1051,-2.67066 0,0 0.18419,-0.82882 -1.1051,-2.67066 -1.28928,-1.84183 -13.81374,-12.52445 -14.45838,-12.89282 -0.64464,-0.36837 -26.2461,-2.02602 -28.91676,1.19719 -2.67065,3.22321 -2.39438,14.36629 -2.39438,14.36629 0,0 -0.27627,11.14308 2.39438,14.36629 2.67066,3.22321 28.27212,1.56556 28.91676,1.19719 0.64464,-0.36837 13.1691,-11.05099 14.45838,-12.89282 z"
     fill="#1a1a1a"
     style="fill:#000000;fill-opacity:1;stroke-width:0.920916" /><path
     style="fill:none;stroke:#000000;stroke-width:1px;stroke-linecap:butt;stroke-linejoin:miter;stroke-opacity:1"
     d="m -357.2,761 h 2.01273"
     id="path6598" /><path
     style="fill:#f202cb;fill-opacity:1;stroke-width:0.920916"
     fill="#1a1a1a"
     d="m -309.41775,816.67066 c 1.28929,-1.84184 1.1051,-2.67066 1.1051,-2.67066 0,0 0.18419,-0.82882 -1.1051,-2.67066 -1.28928,-1.84183 -13.81374,-12.52445 -14.45838,-12.89282 -0.64464,-0.36837 -26.2461,-2.02602 -28.91676,1.19719 -2.67065,3.22321 -2.39438,14.36629 -2.39438,14.36629 0,0 -0.27627,11.14308 2.39438,14.36629 2.67066,3.22321 28.27212,1.56556 28.91676,1.19719 0.64464,-0.36837 13.1691,-11.05099 14.45838,-12.89282 z"
     id="path1266" /></g><g
   id="g6818"
   transform="rotate(90,-358.2,742.3)"><path
     style="fill:#000000;fill-opacity:1;stroke-width:0.920916"
     fill="#1a1a1a"
     d="m -309.41775,763.67066 c 1.28929,-1.84184 1.1051,-2.67066 1.1051,-2.67066 0,0 0.18419,-0.82882 -1.1051,-2.67066 -1.28928,-1.84183 -13.81374,-12.52445 -14.45838,-12.89282 -0.64464,-0.36837 -26.2461,-2.02602 -28.91676,1.19719 -2.67065,3.22321 -2.39438,14.36629 -2.39438,14.36629 0,0 -0.27627,11.14308 2.39438,14.36629 2.67066,3.22321 28.27212,1.56556 28.91676,1.19719 0.64464,-0.36837 13.1691,-11.05099 14.45838,-12.89282 z"
     id="path6814" /><path
     id="path1270"
     d="m -256.41775,763.67066 c 1.28929,-1.84184 1.1051,-2.67066 1.1051,-2.67066 0,0 0.18419,-0.82882 -1.1051,-2.67066 -1.28928,-1.84183 -13.81374,-12.52445 -14.45838,-12.89282 -0.64464,-0.36837 -26.2461,-2.02602 -28.91676,1.19719 -2.67065,3.22321 -2.39438,14.36629 -2.39438,14.36629 0,0 -0.27627,11.14308 2.39438,14.36629 2.67066,3.22321 28.27212,1.56556 28.91676,1.19719 0.64464,-0.36837 13.1691,-11.05099 14.45838,-12.89282 z"
     fill="#1a1a1a"
     style="fill:#f202cb;fill-opacity:1;stroke-width:0.920916" /></g><g
   transform="matrix(0,-1,-1,0,346.7,437)"
   id="g6824"><path
     id="path6820"
     d="m -309.41775,763.67066 c 1.28929,-1.84184 1.1051,-2.67066 1.1051,-2.67066 0,0 0.18419,-0.82882 -1.1051,-2.67066 -1.28928,-1.84183 -13.81374,-12.52445 -14.45838,-12.89282 -0.64464,-0.36837 -26.2461,-2.02602 -28.91676,1.19719 -2.67065,3.22321 -2.39438,14.36629 -2.39438,14.36629 0,0 -0.27627,11.14308 2.39438,14.36629 2.67066,3.22321 28.27212,1.56556 28.91676,1.19719 0.64464,-0.36837 13.1691,-11.05099 14.45838,-12.89282 z"
     fill="#1a1a1a"
     style="fill:#000000;fill-opacity:1;stroke-width:0.920916" /><path
     style="fill:#f202cb;fill-opacity:1;stroke-width:0.920916"
     fill="#1a1a1a"
     d="m -362.41775,763.67066 c 1.28929,-1.84184 1.1051,-2.67066 1.1051,-2.67066 0,0 0.18419,-0.82882 -1.1051,-2.67066 -1.28928,-1.84183 -13.81374,-12.52445 -14.45838,-12.89282 -0.64464,-0.36837 -26.2461,-2.02602 -28.91676,1.19719 -2.67065,3.22321 -2.39438,14.36629 -2.39438,14.36629 0,0 -0.27627,11.14308 2.39438,14.36629 2.67066,3.22321 28.27212,1.56556 28.91676,1.19719 0.64464,-0.36837 13.1691,-11.05099 14.45838,-12.89282 z"
     id="path1272" /></g><path
   opacity="0.25"
   enable-background="new    "
   d="m -303.1,764 c -1.4,-2 -1.2,-2.9 -1.2,-2.9 0,0 -0.2,-0.9 1.2,-2.9 0.9,-1.3 6.9,-6.6 11.2,-10.3 2.1,3.9 3.4,8.4 3.4,13.2 0,4.8 -1.2,9.3 -3.4,13.2 -4.3,-3.7 -10.3,-9 -11.2,-10.3 z"
   id="path1247-6" /><path
   style="fill:#f202cb;fill-opacity:1;stroke-width:0.920916"
   fill="#1a1a1a"
   d="m -301.28225,816.77066 c -1.28929,-1.84184 -1.1051,-2.67066 -1.1051,-2.67066 0,0 -0.18419,-0.82882 1.1051,-2.67066 1.28928,-1.84183 13.81374,-12.52445 14.45838,-12.89282 0.64464,-0.36837 26.2461,-2.02602 28.91676,1.19719 2.67065,3.22321 2.39438,14.36629 2.39438,14.36629 0,0 0.27627,11.14308 -2.39438,14.36629 -2.67066,3.22321 -28.27212,1.56556 -28.91676,1.19719 -0.64464,-0.36837 -13.1691,-11.05099 -14.45838,-12.89282 z"
   id="path1264" /></svg>
