<?xml version="1.0" encoding="UTF-8" standalone="no"?>
<svg
   xmlns:osb="http://www.openswatchbook.org/uri/2009/osb"
   xmlns:dc="http://purl.org/dc/elements/1.1/"
   xmlns:cc="http://creativecommons.org/ns#"
   xmlns:rdf="http://www.w3.org/1999/02/22-rdf-syntax-ns#"
   xmlns:svg="http://www.w3.org/2000/svg"
   xmlns="http://www.w3.org/2000/svg"
   xmlns:xlink="http://www.w3.org/1999/xlink"
   xmlns:sodipodi="http://sodipodi.sourceforge.net/DTD/sodipodi-0.dtd"
   xmlns:inkscape="http://www.inkscape.org/namespaces/inkscape"
   version="1.1"
   id="Layer_1"
   x="0px"
   y="0px"
   width="806.09998"
   height="598.96667"
   viewBox="97 97.1 806.09998 598.96665"
   enable-background="new 97 97.1 806 598.9"
   xml:space="preserve"
   sodipodi:docname="auraaBase.svg"
   inkscape:version="1.0 (4035a4fb49, 2020-05-01)"><metadata
   id="metadata413"><rdf:RDF><cc:Work
       rdf:about=""><dc:format>image/svg+xml</dc:format><dc:type
         rdf:resource="http://purl.org/dc/dcmitype/StillImage" /><dc:title /></cc:Work></rdf:RDF></metadata><defs
   id="defs411"><linearGradient
     osb:paint="solid"
     id="linearGradient4071"><stop
       id="stop4069"
       offset="0"
       style="stop-color:#6c015b;stop-opacity:1;" /></linearGradient><linearGradient
     inkscape:collect="always"
     id="linearGradient3759"><stop
       style="stop-color:#f202cb;stop-opacity:1"
       offset="0"
       id="stop3755" /><stop
       style="stop-color:#000000;stop-opacity:1"
       offset="1"
       id="stop3757" /></linearGradient><linearGradient
     id="linearGradient3393"
     inkscape:collect="always"><stop
       id="stop3389"
       offset="0"
       style="stop-color:#f202cb;stop-opacity:1" /><stop
       id="stop3391"
       offset="1"
       style="stop-color:#000000;stop-opacity:1" /></linearGradient><linearGradient
     y2="329.40875"
     x2="515.21259"
     y1="700.39227"
     x1="511.90942"
     gradientUnits="userSpaceOnUse"
     id="linearGradient4065"
     xlink:href="#linearGradient3759"
     inkscape:collect="always" /><linearGradient
     inkscape:collect="always"
     xlink:href="#linearGradient3393"
     id="linearGradient2474"
     x1="377.07178"
     y1="708.19244"
     x2="380.35825"
     y2="328.4407"
     gradientUnits="userSpaceOnUse" /><linearGradient
     inkscape:collect="always"
     xlink:href="#linearGradient3759"
     id="linearGradient2478"
     gradientUnits="userSpaceOnUse"
     x1="625.98822"
     y1="700.50897"
     x2="628.3067"
     y2="330.93225" /></defs><sodipodi:namedview
   inkscape:snap-smooth-nodes="true"
   inkscape:document-rotation="0"
   pagecolor="#ffffff"
   bordercolor="#666666"
   borderopacity="1"
   objecttolerance="10"
   gridtolerance="10"
   guidetolerance="10"
   inkscape:pageopacity="0"
   inkscape:pageshadow="2"
   inkscape:window-width="1920"
   inkscape:window-height="1017"
   id="namedview409"
   showgrid="false"
   inkscape:zoom="1.3014888"
   inkscape:cx="428.1461"
   inkscape:cy="241.07567"
   inkscape:window-x="-8"
   inkscape:window-y="-8"
   inkscape:window-maximized="1"
   inkscape:current-layer="Layer_1"
   inkscape:snap-page="true" />
<pattern
   x="97"
   y="696"
   width="40"
   height="103"
   patternUnits="userSpaceOnUse"
   id="SVGID_1_"
   viewBox="0 -231.7 40 103"
   overflow="visible">
	<g
   id="g38">
		<polygon
   fill="none"
   points="0,-128.7 40,-128.7 40,-231.7 0,-231.7   "
   id="polygon2" />
		<g
   id="g36">
			<polygon
   fill="none"
   points="0,-128.7 40,-128.7 40,-231.7 0,-231.7    "
   id="polygon4" />
			<polygon
   points="34.5,-360.5 37.5,-360.5 37.5,-206 34.5,-206    "
   id="polygon6" />
			<polygon
   points="26.5,-360.5 29.5,-360.5 29.5,-206 26.5,-206    "
   id="polygon8" />
			<polygon
   points="18.5,-360.5 21.5,-360.5 21.5,-206 18.5,-206    "
   id="polygon10" />
			<polygon
   points="10.5,-360.5 13.5,-360.5 13.5,-206 10.5,-206    "
   id="polygon12" />
			<polygon
   points="2.5,-360.5 5.5,-360.5 5.5,-206 2.5,-206    "
   id="polygon14" />
			<polygon
   points="34.5,-257.5 37.5,-257.5 37.5,-103 34.5,-103    "
   id="polygon16" />
			<polygon
   points="26.5,-257.5 29.5,-257.5 29.5,-103 26.5,-103    "
   id="polygon18" />
			<polygon
   points="18.5,-257.5 21.5,-257.5 21.5,-103 18.5,-103    "
   id="polygon20" />
			<polygon
   points="10.5,-257.5 13.5,-257.5 13.5,-103 10.5,-103    "
   id="polygon22" />
			<polygon
   points="2.5,-257.5 5.5,-257.5 5.5,-103 2.5,-103    "
   id="polygon24" />
			<polygon
   points="34.5,-154.5 37.5,-154.5 37.5,0 34.5,0    "
   id="polygon26" />
			<polygon
   points="26.5,-154.5 29.5,-154.5 29.5,0 26.5,0    "
   id="polygon28" />
			<polygon
   points="18.5,-154.5 21.5,-154.5 21.5,0 18.5,0    "
   id="polygon30" />
			<polygon
   points="10.5,-154.5 13.5,-154.5 13.5,0 10.5,0    "
   id="polygon32" />
			<polygon
   points="2.5,-154.5 5.5,-154.5 5.5,0 2.5,0    "
   id="polygon34" />
		</g>
	</g>
</pattern>
<pattern
   x="97"
   y="696"
   width="40"
   height="103"
   patternUnits="userSpaceOnUse"
   id="SVGID_2_"
   viewBox="0 -231.7 40 103"
   overflow="visible">
	<g
   id="g77">
		<polygon
   fill="none"
   points="0,-128.7 40,-128.7 40,-231.7 0,-231.7   "
   id="polygon41" />
		<g
   id="g75">
			<polygon
   fill="none"
   points="0,-128.7 40,-128.7 40,-231.7 0,-231.7    "
   id="polygon43" />
			<polygon
   points="34.5,-360.5 37.5,-360.5 37.5,-206 34.5,-206    "
   id="polygon45" />
			<polygon
   points="26.5,-360.5 29.5,-360.5 29.5,-206 26.5,-206    "
   id="polygon47" />
			<polygon
   points="18.5,-360.5 21.5,-360.5 21.5,-206 18.5,-206    "
   id="polygon49" />
			<polygon
   points="10.5,-360.5 13.5,-360.5 13.5,-206 10.5,-206    "
   id="polygon51" />
			<polygon
   points="2.5,-360.5 5.5,-360.5 5.5,-206 2.5,-206    "
   id="polygon53" />
			<polygon
   points="34.5,-257.5 37.5,-257.5 37.5,-103 34.5,-103    "
   id="polygon55" />
			<polygon
   points="26.5,-257.5 29.5,-257.5 29.5,-103 26.5,-103    "
   id="polygon57" />
			<polygon
   points="18.5,-257.5 21.5,-257.5 21.5,-103 18.5,-103    "
   id="polygon59" />
			<polygon
   points="10.5,-257.5 13.5,-257.5 13.5,-103 10.5,-103    "
   id="polygon61" />
			<polygon
   points="2.5,-257.5 5.5,-257.5 5.5,-103 2.5,-103    "
   id="polygon63" />
			<polygon
   points="34.5,-154.5 37.5,-154.5 37.5,0 34.5,0    "
   id="polygon65" />
			<polygon
   points="26.5,-154.5 29.5,-154.5 29.5,0 26.5,0    "
   id="polygon67" />
			<polygon
   points="18.5,-154.5 21.5,-154.5 21.5,0 18.5,0    "
   id="polygon69" />
			<polygon
   points="10.5,-154.5 13.5,-154.5 13.5,0 10.5,0    "
   id="polygon71" />
			<polygon
   points="2.5,-154.5 5.5,-154.5 5.5,0 2.5,0    "
   id="polygon73" />
		</g>
	</g>
</pattern>
<pattern
   x="97"
   y="696"
   width="71"
   height="71"
   patternUnits="userSpaceOnUse"
   id="SVGID_3_"
   viewBox="0 -71 71 71"
   overflow="visible">
	<g
   id="g88">
		<polygon
   fill="none"
   points="0,0 71,0 71,-71 0,-71   "
   id="polygon80" />
		<g
   id="g86">
			<polygon
   fill="none"
   points="0,0 71,0 71,-71 0,-71    "
   id="polygon82" />
			<path
   fill="#B3B3B3"
   d="M41.8-35.5c0-3.5-2.8-6.3-6.3-6.3s-6.3,2.8-6.3,6.3s2.8,6.3,6.3,6.3S41.8-32,41.8-35.5z"
   id="path84" />
		</g>
	</g>
</pattern>













<g
   id="g3795">
	<g
   id="g3793">
		<g
   id="g3791">
			<path
   style="fill:url(#linearGradient4065);fill-opacity:1"
   id="path3761"
   d="m 898.3,515.7 c -2.9,-15.5 -17.7,-102.5 -32,-144.6 -9.4,-27.7 -13.1,-53 -17,-64.9 -12,-35.7 -33,-65.7 -33,-65.7 0,0 -9.5,-13.1 -10.1,-16.3 -0.6,-3.3 -4.7,-8.6 -4.7,-8.6 0,0 -17.4,-5.7 -62.3,-5.7 -44.9,0 -53.7,5 -53.7,5 0,0 -2.4,2.9 -5.9,4.8 -3.5,1.8 -11.7,1.7 -11.7,1.7 h -33.4 c 0,0 -0.6,-0.1 -0.9,0.3 -0.4,0.4 -0.6,2 -0.6,2 H 500 366.9 c 0,0 -0.3,-1.7 -0.6,-2 -0.4,-0.4 -0.9,-0.3 -0.9,-0.3 H 332 c 0,0 -8.2,0.2 -11.7,-1.7 -3.5,-1.8 -5.9,-4.8 -5.9,-4.8 0,0 -8.8,-5 -53.7,-5 -44.8,0 -62.3,5.7 -62.3,5.7 0,0 -4.1,5.3 -4.7,8.6 -0.6,3.3 -10.1,16.3 -10.1,16.3 0,0 -21,30 -33,65.7 -4,11.9 -7.7,37.2 -17,64.9 -14.3,42.1 -29.1,129.1 -32,144.6 -4.3,23.2 -4.6,90.2 -4.6,90.2 0,0 4.5,53.4 36.2,74.9 31.7,21.5 56.7,14 56.7,14 0,0 33.1,-8.2 57.8,-41.9 24.7,-33.7 56.6,-129.2 56.6,-129.2 0,0 2.2,-3 5.7,-5.3 3.5,-2.3 6.3,-2.6 6.3,-2.6 l 183.7,0.1 183.7,-0.1 c 0,0 2.8,0.3 6.3,2.6 3.5,2.3 5.7,5.3 5.7,5.3 0,0 31.9,95.4 56.6,129.2 24.7,33.8 57.8,41.9 57.8,41.9 0,0 25,7.5 56.7,-14 31.7,-21.5 36.2,-74.9 36.2,-74.9 0,0 -0.3,-67 -4.7,-90.2 z"
   fill="#0d0e13" />
			<g
   id="g3765"
   opacity="0.06">
				
			<path
   style="fill:#f202cb;fill-opacity:1"
   id="path3763"
   d="m 133.6,373.1 c 9.4,-27.7 13.1,-53 17,-64.9 12,-35.7 33,-65.7 33,-65.7 0,0 9.5,-13.1 10.1,-16.3 0.6,-3.3 4.7,-8.6 4.7,-8.6 0,0 17.4,-5.7 62.3,-5.7 44.8,0 53.7,5 53.7,5 0,0 2.4,2.9 5.9,4.8 3.5,1.8 11.7,1.7 11.7,1.7 h 33.4 c 0,0 0.6,-0.1 0.9,0.3 0.4,0.4 0.6,2 0.6,2 H 500 633.1 c 0,0 0.3,-1.7 0.6,-2 0.4,-0.4 0.9,-0.3 0.9,-0.3 H 668 c 0,0 8.2,0.2 11.7,-1.7 3.5,-1.8 5.9,-4.8 5.9,-4.8 0,0 8.8,-5 53.7,-5 44.9,0 62.3,5.7 62.3,5.7 0,0 4.1,5.3 4.7,8.6 0.6,3.3 10.1,16.3 10.1,16.3 0,0 21,30 33,65.7 4,11.9 7.7,37.2 17,64.9 14.3,42.1 29.1,129.1 32,144.6 3.9,20.9 4.6,77.3 4.7,88.3 0,-0.1 0,-0.1 0,-0.1 0,0 -0.3,-66.9 -4.7,-90.1 -2.9,-15.5 -17.7,-102.5 -32,-144.6 -9.4,-27.7 -13.1,-53 -17,-64.9 -12,-35.7 -33,-65.7 -33,-65.7 0,0 -9.5,-13.1 -10.1,-16.3 -0.6,-3.3 -4.7,-8.6 -4.7,-8.6 0,0 -17.4,-5.7 -62.3,-5.7 -44.9,0 -53.7,5 -53.7,5 0,0 -2.4,2.9 -5.9,4.8 -3.5,1.8 -11.7,1.7 -11.7,1.7 h -33.4 c 0,0 -0.6,-0.1 -0.9,0.3 -0.4,0.4 -0.6,2 -0.6,2 H 500 366.9 c 0,0 -0.3,-1.7 -0.6,-2 -0.4,-0.4 -0.9,-0.3 -0.9,-0.3 H 332 c 0,0 -8.2,0.2 -11.7,-1.7 -3.5,-1.8 -5.9,-4.8 -5.9,-4.8 0,0 -8.8,-5 -53.7,-5 -44.8,0 -62.3,5.7 -62.3,5.7 0,0 -4.1,5.3 -4.7,8.6 -0.6,3.3 -10.1,16.3 -10.1,16.3 0,0 -21,30 -33,65.7 -4,11.9 -7.7,37.2 -17,64.9 -14.3,42.1 -29.1,129.1 -32,144.6 -4.3,23.1 -4.6,90.1 -4.6,90.1 v 0.1 c 0.1,-10.9 0.7,-67.4 4.7,-88.3 2.9,-15.4 17.6,-102.5 31.9,-144.6 z"
   fill="#ffffff" /></g>
			<path
   id="path3767"
   d="m 448.2,457.1 c 0,-42.2 -34.3,-76.5 -76.5,-76.5 -42.2,0 -76.5,34.3 -76.5,76.5 0,0.7 0,1.3 0.1,2 0,0.7 -0.1,1.3 -0.1,2 0,42.2 34.3,76.5 76.5,76.5 42.2,0 76.5,-34.3 76.5,-76.5 0,-0.7 0,-1.3 -0.1,-2 0,-0.7 0.1,-1.4 0.1,-2 z"
   fill="#13161f"
   style="fill:#6c015b;fill-opacity:1" />
			<circle
   id="circle3769"
   r="73"
   cy="453.10001"
   cx="371.70001"
   fill="#0f1015"
   style="fill:url(#linearGradient2474);fill-opacity:1" />
			<circle
   id="circle3771"
   r="51.5"
   cy="453.10001"
   cx="371.70001" />
			<path
   id="path3773"
   d="m 704.8,457.1 c 0,-42.2 -34.3,-76.5 -76.5,-76.5 -42.2,0 -76.5,34.3 -76.5,76.5 0,0.7 0,1.3 0.1,2 0,0.7 -0.1,1.3 -0.1,2 0,42.2 34.3,76.5 76.5,76.5 42.2,0 76.5,-34.3 76.5,-76.5 0,-0.7 0,-1.3 -0.1,-2 0.1,-0.7 0.1,-1.4 0.1,-2 z"
   fill="#13161f"
   style="fill:#740161;fill-opacity:1" />
			<circle
   id="circle3775"
   cy="453.10001"
   cx="628.29999"
   fill="#0f1015"
   style="fill:url(#linearGradient2478);fill-opacity:1"
   r="73" />
			<circle
   id="circle3777"
   r="51.5"
   cy="453.10001"
   cx="628.29999" />
			<path
   id="path3779"
   d="m 631.8,225.1 c -0.4,-3.2 -3.3,-5.6 -6.5,-5.6 v 0 H 500 v 0 H 374.7 v 0 c -3.2,0 -6.1,2.3 -6.5,5.6 -0.1,0.7 -0.1,1.4 -0.1,2.1 v 127.4 c 0,8.9 7.2,16.1 16.1,16.1 H 500 v 0 h 115.8 c 8.9,0 16.1,-7.2 16.1,-16.1 V 227.2 c 0.1,-0.7 0,-1.4 -0.1,-2.1 z"
   fill="#121212"
   style="fill:#f202cb;fill-opacity:1" />
			
			<g
   id="g3789">
				
				<path
   id="path3781"
   d="m 327.4,351.2 9.5,-8.9 c 0.5,-0.5 0.5,-1.2 0,-1.7 l -9.5,-8.9 c -0.7,-0.7 -1.9,-0.2 -1.9,0.8 v 8.9 8.9 c -0.1,1 1.1,1.5 1.9,0.9 z"
   fill="#1f1f1f"
   style="fill:#f202cb;fill-opacity:1" />
				<path
   id="path3783"
   d="m 242,266.9 h 8.9 8.9 c 1,0 1.5,-1.2 0.8,-1.9 l -8.9,-9.5 c -0.5,-0.5 -1.2,-0.5 -1.7,0 l -8.9,9.5 c -0.6,0.7 -0.1,1.9 0.9,1.9 z"
   fill="#1f1f1f"
   style="fill:#f202cb;fill-opacity:1" />
				<path
   id="path3785"
   d="m 174.5,331.7 -9.5,8.9 c -0.5,0.5 -0.5,1.2 0,1.7 l 9.5,8.9 c 0.7,0.7 1.9,0.2 1.9,-0.8 v -8.9 -8.9 c 0,-1.1 -1.2,-1.6 -1.9,-0.9 z"
   fill="#1f1f1f"
   style="fill:#f202cb;fill-opacity:1" />
				<path
   id="path3787"
   d="m 259.8,415.9 h -8.9 -8.9 c -1,0 -1.5,1.2 -0.8,1.9 l 8.9,9.5 c 0.5,0.5 1.2,0.5 1.7,0 l 8.9,-9.5 c 0.6,-0.7 0.1,-1.9 -0.9,-1.9 z"
   fill="#1f1f1f"
   style="fill:#f202cb;fill-opacity:1" />
			</g>
		</g>
	</g>
</g><g
   id="g3847">
	<g
   id="g3799">
		
		
			<pattern
   patternTransform="matrix(0.3298 9.457588e-002 9.457588e-002 -0.3298 -10180.4512 -7431.5161)"
   xlink:href="#SVGID_1_"
   id="pattern3797">
		</pattern>
		
		
	</g>
	<g
   id="g3803">
		
		
			<pattern
   patternTransform="matrix(-0.3298 9.457588e-002 -9.457588e-002 -0.3298 -21159.9766 -7429.6616)"
   xlink:href="#SVGID_2_"
   id="pattern3801">
		</pattern>
		
		
	</g>
	<g
   id="g3811">
		<g
   id="g3809">
			<path
   id="path3805"
   d="m 337.5,240.6 c 6.9,0 12.5,5.6 12.5,12.5 v 18.3 c 0,6.9 -5.6,12.5 -12.5,12.5 -6.9,0 -12.5,-5.6 -12.5,-12.5 v -18.3 c 0,-6.9 5.6,-12.5 12.5,-12.5 m 0,-1.7 c -7.8,0 -14.2,6.4 -14.2,14.2 v 18.3 c 0,7.8 6.4,14.2 14.2,14.2 7.8,0 14.2,-6.4 14.2,-14.2 v -18.3 c 0,-7.9 -6.4,-14.2 -14.2,-14.2 z"
   style="fill:#f202cb;fill-opacity:1" />
			<path
   id="path3807"
   d="m 337.5,240.6 c -6.9,0 -12.5,5.6 -12.5,12.5 v 18.3 c 0,6.9 5.6,12.5 12.5,12.5 6.9,0 12.5,-5.6 12.5,-12.5 v -18.3 c 0,-6.9 -5.6,-12.5 -12.5,-12.5 z"
   fill="#10111a"
   style="fill:#000000;fill-opacity:1" />
		</g>
	</g>
	<g
   id="g3819">
		<g
   id="g3817">
			<path
   id="path3813"
   d="m 662.5,240.6 c 6.9,0 12.5,5.6 12.5,12.5 v 18.3 c 0,6.9 -5.6,12.5 -12.5,12.5 v 0 c -6.9,0 -12.5,-5.6 -12.5,-12.5 v -18.3 c 0,-6.9 5.6,-12.5 12.5,-12.5 v 0 m 0,-1.7 c -7.8,0 -14.2,6.4 -14.2,14.2 v 18.3 c 0,7.8 6.4,14.2 14.2,14.2 7.8,0 14.2,-6.4 14.2,-14.2 v -18.3 c 0,-7.9 -6.4,-14.2 -14.2,-14.2 z"
   style="fill:#f202cb;fill-opacity:1" />
			<path
   id="path3815"
   d="m 662.5,240.6 c -6.9,0 -12.5,5.6 -12.5,12.5 v 18.3 c 0,6.9 5.6,12.5 12.5,12.5 6.9,0 12.5,-5.6 12.5,-12.5 v -18.3 c 0,-6.9 -5.6,-12.5 -12.5,-12.5 z"
   fill="#10111a"
   style="fill:#000000;fill-opacity:1" />
		</g>
	</g>
	<g
   id="g3845">
		<g
   id="g3825">
			
			
		</g>
		<g
   id="g3831">
			
			<path
   id="path3829"
   d="m 248,328.7 c 2,1.4 2.9,1.2 2.9,1.2 0,0 0.9,0.2 2.9,-1.2 1.3,-0.9 6.6,-6.9 10.3,-11.2 -3.9,-2.1 -8.4,-3.4 -13.2,-3.4 -4.8,0 -9.3,1.2 -13.2,3.4 3.8,4.3 9,10.3 10.3,11.2 z"
   enable-background="new    "
   opacity="0.25" />
		</g>
		<g
   id="g3837">
			
			
		</g>
		<g
   id="g3843">
			
			
		</g>
	</g>
</g><g
   id="g3877">
	<g
   id="g3863">
		<circle
   id="circle3849"
   r="4.0999999"
   cy="413.5"
   cx="500" />
		<circle
   id="circle3851"
   r="4.0999999"
   cy="392.60001"
   cx="500" />
		<circle
   id="circle3853"
   r="4.0999999"
   cy="402.79999"
   cx="493.10001" />
		<circle
   id="circle3855"
   r="4.0999999"
   cy="402.79999"
   cx="478.39999" />
		<circle
   id="circle3857"
   r="4.0999999"
   cy="413.5"
   cx="485.70001" />
		<circle
   id="circle3859"
   r="4.0999999"
   cy="392.60001"
   cx="485.70001" />
		<circle
   id="circle3861"
   r="4.0999999"
   cy="392.60001"
   cx="471.39999" />
	</g>
	<g
   id="g3875">
		<circle
   id="circle3865"
   r="4.0999999"
   cy="402.79999"
   cx="506.89999" />
		<circle
   id="circle3867"
   r="4.0999999"
   cy="402.79999"
   cx="521.59998" />
		<circle
   id="circle3869"
   r="4.0999999"
   cy="413.5"
   cx="514.20001" />
		<circle
   id="circle3871"
   r="4.0999999"
   cy="392.60001"
   cx="514.20001" />
		<circle
   id="circle3873"
   r="4.0999999"
   cy="392.60001"
   cx="528.59998" />
	</g>
</g><g
   id="g3903"
   opacity="0.12">
	<path
   id="path3879"
   d="m 500,416.6 c -2.1,0 -3.8,-1.6 -4.1,-3.6 0,0.2 -0.1,0.3 -0.1,0.5 0,2.3 1.8,4.1 4.1,4.1 2.3,0 4.1,-1.8 4.1,-4.1 0,-0.2 0,-0.3 -0.1,-0.5 -0.1,2 -1.8,3.6 -3.9,3.6 z"
   fill="#ffffff" />
	<path
   id="path3881"
   d="m 500,396.7 c 2.3,0 4.1,-1.8 4.1,-4.1 0,-0.2 0,-0.3 -0.1,-0.5 -0.2,2 -2,3.6 -4.1,3.6 -2.1,0 -3.8,-1.6 -4.1,-3.6 0,0.2 -0.1,0.3 -0.1,0.5 0.2,2.2 2,4.1 4.3,4.1 z"
   fill="#ffffff" />
	<path
   id="path3883"
   d="m 497.2,402.8 c 0,-0.2 0,-0.3 -0.1,-0.5 -0.2,2 -2,3.6 -4.1,3.6 -2.1,0 -3.8,-1.6 -4.1,-3.6 0,0.2 -0.1,0.3 -0.1,0.5 0,2.3 1.8,4.1 4.1,4.1 2.4,0 4.3,-1.8 4.3,-4.1 z"
   fill="#ffffff" />
	<path
   id="path3885"
   d="m 482.4,402.3 c -0.2,2 -2,3.6 -4.1,3.6 -2.1,0 -3.8,-1.6 -4.1,-3.6 0,0.2 -0.1,0.3 -0.1,0.5 0,2.3 1.8,4.1 4.1,4.1 2.3,0 4.1,-1.8 4.1,-4.1 0.2,-0.2 0.2,-0.3 0.1,-0.5 z"
   fill="#ffffff" />
	<path
   id="path3887"
   d="m 485.8,416.6 c -2.1,0 -3.8,-1.6 -4.1,-3.6 0,0.2 -0.1,0.3 -0.1,0.5 0,2.3 1.8,4.1 4.1,4.1 2.3,0 4.1,-1.8 4.1,-4.1 0,-0.2 0,-0.3 -0.1,-0.5 -0.1,2 -1.8,3.6 -3.9,3.6 z"
   fill="#ffffff" />
	<path
   id="path3889"
   d="m 485.8,396.7 c 2.3,0 4.1,-1.8 4.1,-4.1 0,-0.2 0,-0.3 -0.1,-0.5 -0.2,2 -2,3.6 -4.1,3.6 -2.1,0 -3.8,-1.6 -4.1,-3.6 0,0.2 -0.1,0.3 -0.1,0.5 0.1,2.2 2,4.1 4.3,4.1 z"
   fill="#ffffff" />
	<path
   id="path3891"
   d="m 475.6,392.6 c 0,-0.2 0,-0.3 -0.1,-0.5 -0.2,2 -2,3.6 -4.1,3.6 -2.1,0 -3.8,-1.6 -4.1,-3.6 0,0.2 -0.1,0.3 -0.1,0.5 0,2.3 1.8,4.1 4.1,4.1 2.4,0 4.3,-1.9 4.3,-4.1 z"
   fill="#ffffff" />
	<path
   id="path3893"
   d="m 511,402.3 c -0.2,2 -2,3.6 -4.1,3.6 -2.1,0 -3.8,-1.6 -4.1,-3.6 0,0.2 -0.1,0.3 -0.1,0.5 0,2.3 1.8,4.1 4.1,4.1 2.3,0 4.1,-1.8 4.1,-4.1 0.2,-0.2 0.1,-0.3 0.1,-0.5 z"
   fill="#ffffff" />
	<path
   id="path3895"
   d="m 521.6,405.9 c -2.1,0 -3.8,-1.6 -4.1,-3.6 0,0.2 -0.1,0.3 -0.1,0.5 0,2.3 1.8,4.1 4.1,4.1 2.3,0 4.1,-1.8 4.1,-4.1 0,-0.2 0,-0.3 -0.1,-0.5 0,2.1 -1.8,3.6 -3.9,3.6 z"
   fill="#ffffff" />
	<path
   id="path3897"
   d="m 514.3,416.6 c -2.1,0 -3.8,-1.6 -4.1,-3.6 0,0.2 -0.1,0.3 -0.1,0.5 0,2.3 1.8,4.1 4.1,4.1 2.3,0 4.1,-1.8 4.1,-4.1 0,-0.2 0,-0.3 -0.1,-0.5 -0.1,2 -1.8,3.6 -3.9,3.6 z"
   fill="#ffffff" />
	<path
   id="path3899"
   d="m 514.3,396.7 c 2.3,0 4.1,-1.8 4.1,-4.1 0,-0.2 0,-0.3 -0.1,-0.5 -0.2,2 -2,3.6 -4.1,3.6 -2.1,0 -3.8,-1.6 -4.1,-3.6 0,0.2 -0.1,0.3 -0.1,0.5 0.1,2.2 2,4.1 4.3,4.1 z"
   fill="#ffffff" />
	<path
   id="path3901"
   d="m 528.6,395.7 c -2.1,0 -3.8,-1.6 -4.1,-3.6 0,0.2 -0.1,0.3 -0.1,0.5 0,2.3 1.8,4.1 4.1,4.1 2.3,0 4.1,-1.8 4.1,-4.1 0,-0.2 0,-0.3 -0.1,-0.5 -0.1,2 -1.8,3.6 -3.9,3.6 z"
   fill="#ffffff" />
</g><path
   id="path3905"
   d="m 533.60003,518.1 h -67.9 c -2.8,0 -4.6,0.6 -4.6,-2.2 v 0 c 0,-2.8 2.3,-5 5,-5 h 67.9 c 2.8,0 5,2.3 5,5 v 0 c 0.1,2.7 -2.6,2.2 -5.4,2.2 z"
   fill="#0b0b0f" /><path
   id="path3907"
   d="m 505.30003,515.9 h -36.5 c -0.5,0 -0.9,-0.4 -0.9,-0.9 v 0 c 0,-1.1 0.9,-2 2,-2 h 34.2 c 1.1,0 2,0.9 2,2 v 0 c 0.1,0.5 -0.3,0.9 -0.8,0.9 z" /><path
   id="path3909"
   d="m 527.50003,516.7 h -4.2 c -0.9,0 -1.7,-0.8 -1.7,-1.7 v 0 c 0,-1.6 1.3,-2.8 2.8,-2.8 h 1.9 c 1.6,0 2.8,1.3 2.8,2.8 v 0 c 0.1,1 -0.6,1.7 -1.6,1.7 z" /><g
   id="g3921">
	<g
   id="g3919">
		<path
   id="path3911"
   d="m 627.4,221.4 c 0,-1 -0.8,-1.9 -1.9,-1.9 H 500 v 0 H 374.4 c -1,0 -1.9,0.8 -1.9,1.9 v 6 123.2 c 0,8.6 7,15.6 15.6,15.6 H 500 v 0 h 111.9 c 8.6,0 15.6,-7 15.6,-15.6 V 227.5 Z"
   fill="#080808"
   style="fill:#000000" />
		<g
   id="g3917"
   opacity="0.12">
			
				<pattern
   opacity="0.12"
   patternTransform="matrix(0.1017 0 0 -0.1017 -13979.8896 -2289.7598)"
   xlink:href="#SVGID_3_"
   id="pattern3913">
			</pattern>
			<path
   id="path3915"
   d="m 372.5,350.6 c 0,8.6 7,15.6 15.6,15.6 H 500 v 0 h 111.9 c 8.6,0 15.6,-7 15.6,-15.6 V 244.1 h -255 z"
   fill="url(#SVGID_6_)" />
		</g>
	</g>
</g><g
   id="g3965">
	<g
   id="g3963">
		<g
   id="g3931">
			<g
   id="g3927">
				
				
			</g>
			
		</g>
		<g
   id="g3941">
			<g
   id="g3937">
				
				
			</g>
			
		</g>
		<g
   id="g3951">
			<g
   id="g3947">
				
				
			</g>
			
		</g>
		<g
   id="g3961">
			<g
   id="g3957">
				
				
			</g>
			
		</g>
	</g>
</g><g
   id="g3977">
	<circle
   id="circle3967"
   r="20.200001"
   cy="459.10001"
   cx="500"
   stroke-miterlimit="10"
   stroke-width="2"
   stroke="#000000"
   fill="#050505" />
	<g
   id="g3975">
		<path
   id="path3969"
   d="m 501.1,465.7 v -2.8 -3.5 -6.5 c 0,-0.5 0.1,-0.8 0.3,-1 0.1,-0.2 0.4,-0.3 0.7,-0.2 0.6,0.2 0.9,0.7 0.9,1.7 v 6.9 c 0.8,0.4 1.5,0.5 2.1,0.5 0.6,0 1.2,-0.2 1.6,-0.5 1,-0.7 1.5,-1.9 1.5,-3.7 0,-1.9 -0.4,-3.4 -1.2,-4.3 -0.8,-1 -2.1,-1.9 -4.1,-2.6 -1.3,-0.4 -2.5,-0.8 -3.6,-1.1 -1.1,-0.3 -2,-0.5 -2.9,-0.7 v 12.2 0 2.7 0 1.7 0 2.5 0 1.5 l 4.7,1.5 v -3.6 0 z"
   fill="#f2f2f2" />
		<path
   id="path3971"
   d="m 496,464.7 -1.7,0.6 -0.9,0.4 -1.6,0.3 -1.5,-0.2 c -0.3,-0.2 -0.4,-0.4 -0.2,-0.6 0.1,-0.1 0.2,-0.1 0.3,-0.2 0.1,-0.1 0.3,-0.1 0.4,-0.2 l 1.1,-0.4 4.1,-1.5 v -2.7 l -1.7,0.5 -5.5,2 -1,0.4 c -1.5,0.6 -2.2,1.2 -2.2,1.8 0.1,0.8 1,1.5 2.7,1.9 0.7,0.2 1.4,0.3 2.1,0.4 0.7,0.1 1.4,0.1 2.2,0.1 1,0 2.1,-0.1 3.3,-0.3 v -2.3 z"
   fill="#f2f2f2" />
		<path
   id="path3973"
   d="m 511.8,462.4 c -0.9,-0.3 -1.7,-0.5 -2.5,-0.6 -0.8,-0.1 -1.7,-0.2 -2.5,-0.1 -0.9,0 -1.9,0.2 -2.8,0.3 -0.8,0.2 -1.7,0.4 -2.6,0.8 v 2.8 l 3.9,-1.4 1.6,-0.5 1.1,-0.3 h 1.4 c 0.3,0.1 0.6,0.2 0.7,0.4 0,0.2 -0.2,0.4 -0.8,0.6 l -1.4,0.5 -6.5,2.4 v 2.7 l 3.5,-1.3 6.4,-2.3 0.7,-0.4 c 1.5,-0.5 2.2,-1.2 2.2,-1.9 0,-0.6 -0.8,-1.2 -2.4,-1.7 z"
   fill="#f2f2f2" />
	</g>
</g><g
   id="g3995">
	<g
   id="g3985">
		<g
   id="g3983">
			<path
   style="fill:#000000;fill-opacity:1"
   id="path3979"
   d="m 794.2,207 c 0,-0.8 -0.4,-1.5 -1.1,-1.9 -4.5,-2.9 -23.4,-13.6 -51.5,-13.6 -26.9,0 -41.1,5.9 -45.1,8 -0.8,0.4 -1.2,1.2 -1.2,2 0,0 9.8,-2.9 47.5,-2.9 37.7,0 51.4,8.4 51.4,8.4 z"
   fill="#0a0a0a" />
			<path
   id="path3981"
   d="m 794.1,213.9 v 0 -6.9 c 0,0 -13.7,-8.4 -51.4,-8.4 -37.8,0 -47.5,2.9 -47.5,2.9 v 11 0 c 7.7,-1.3 21.2,-2.6 44.1,-2.6 28.5,0.1 45.9,2.4 54.8,4 z"
   fill="#121212"
   style="fill:#0a0a0a;fill-opacity:1" />
		</g>
	</g>
	<g
   id="g3993">
		<g
   id="g3991">
			<path
   style="fill:#000000;fill-opacity:1"
   id="path3987"
   d="m 205.8,207 c 0,-0.8 0.4,-1.5 1.1,-1.9 4.5,-2.9 23.4,-13.6 51.5,-13.6 26.9,0 41.1,5.9 45.1,8 0.8,0.4 1.2,1.2 1.2,2 0,0 -9.8,-2.9 -47.5,-2.9 -37.7,0 -51.4,8.4 -51.4,8.4 z"
   fill="#0a0a0a" />
			<path
   id="path3989"
   d="m 205.9,213.9 v 0 -6.9 c 0,0 13.7,-8.4 51.4,-8.4 37.8,0 47.5,2.9 47.5,2.9 v 11 0 c -7.7,-1.3 -21.2,-2.6 -44.1,-2.6 -28.5,0.1 -45.9,2.4 -54.8,4 z"
   fill="#121212"
   style="fill:#0a0a0a;fill-opacity:1" />
		</g>
	</g>
</g><g
   id="g4033">
	<g
   id="g4013">
		<g
   id="g4011">
			<g
   id="g4001">
				<path
   id="path3997"
   d="m 794.2,187.9 c 0,0 -32.7,-3.2 -50.6,-3.2 -17.9,0 -48.4,2.4 -48.4,2.4 0,0 3.1,-44.7 4.8,-52 1.6,-7.3 7.7,-21.3 16.9,-27.9 9.2,-6.6 11.9,-10.1 22.7,-10.1 10.8,0 25.4,6.4 34.6,21.4 9.3,15 20,69.4 20,69.4 z"
   fill="#121212"
   style="fill:#000000" />
				<path
   id="path3999"
   d="m 695.7,180.3 c 0,0 26.1,-4.4 49,-4.4 22.8,0 47.9,4.4 47.9,4.4 1,4.7 1.6,7.6 1.6,7.6 0,0 -32.7,-3.2 -50.6,-3.2 -17.9,0 -48.4,2.4 -48.4,2.4 0,0 0.2,-2.7 0.5,-6.8 z"
   fill="#0a0a0a" />
			</g>
			<g
   id="g4009"
   opacity="0.08">
				<g
   id="g4005">
					<path
   id="path4003"
   d="m 745.7,162.8 c -2.1,1.7 -3.2,2.6 -3.2,2.6 -1.2,1.2 -1.9,2.7 -2,4.5 h 9.8 v -2.6 H 744 c 0.3,-0.5 1,-1.2 2.1,-1.9 1.4,-0.9 2.3,-1.6 2.7,-2.1 0.9,-1 1.3,-2.1 1.3,-3.3 0,-1.4 -0.5,-2.5 -1.4,-3.3 -0.9,-0.8 -2.1,-1.2 -3.5,-1.2 -3.1,0 -4.7,1.7 -4.7,5 h 2.7 c 0,-1.8 0.7,-2.7 2.1,-2.7 1.3,0 2,0.7 2,2.1 0.2,1.1 -0.4,2 -1.6,2.9 z"
   fill="#ffffff" />
				</g>
				<path
   id="path4007"
   d="m 728.1,164.3 h 3 c 1.5,0 2.3,0.6 2.4,1.9 0.1,1.2 0.2,2.5 0.3,3.8 h 3.3 v -0.4 c -0.5,-0.2 -0.7,-0.7 -0.7,-1.5 0,-0.2 0,-0.4 0.1,-0.8 v -0.7 c 0,-1.7 -0.6,-2.9 -1.8,-3.5 1.4,-0.5 2.2,-1.6 2.2,-3.4 0,-1.3 -0.4,-2.3 -1.3,-3 -0.8,-0.7 -1.9,-1 -3.2,-1 h -7.3 V 170 h 3 z m 0,-6.2 h 3.7 c 1.4,0 2.1,0.6 2.1,1.9 0,1.3 -0.8,1.9 -2.3,1.9 h -3.5 z"
   fill="#ffffff" />
			</g>
		</g>
	</g>
	<g
   id="g4031">
		<g
   id="g4029">
			<g
   id="g4019">
				<path
   id="path4015"
   d="m 205.8,187.9 c 0,0 32.7,-3.2 50.6,-3.2 17.9,0 48.3,2.4 48.3,2.4 0,0 -3.1,-44.7 -4.8,-52 -1.6,-7.3 -7.7,-21.3 -16.9,-27.9 -9.1,-6.7 -11.8,-10.1 -22.6,-10.1 -10.8,0 -25.4,6.4 -34.6,21.4 -9.2,15 -20,69.4 -20,69.4 z"
   fill="#121212"
   style="fill:#000000" />
				<path
   id="path4017"
   d="m 304.3,180.3 c 0,0 -26.1,-4.4 -49,-4.4 -22.8,0 -47.9,4.4 -47.9,4.4 -1,4.7 -1.6,7.6 -1.6,7.6 0,0 32.7,-3.2 50.6,-3.2 17.9,0 48.3,2.4 48.3,2.4 0,0 -0.1,-2.7 -0.4,-6.8 z"
   fill="#0a0a0a" />
			</g>
			<g
   id="g4027"
   opacity="0.08">
				<g
   id="g4023">
					<path
   id="path4021"
   d="m 270.3,162.8 c -2.1,1.7 -3.2,2.6 -3.2,2.6 -1.2,1.2 -1.9,2.7 -2,4.5 h 9.8 v -2.6 h -6.2 c 0.3,-0.5 1,-1.2 2.1,-1.9 1.4,-0.9 2.3,-1.6 2.7,-2.1 0.9,-1 1.3,-2.1 1.3,-3.3 0,-1.4 -0.5,-2.5 -1.4,-3.3 -0.9,-0.8 -2.1,-1.2 -3.5,-1.2 -3.1,0 -4.7,1.7 -4.7,5 h 2.7 c 0,-1.8 0.7,-2.7 2.1,-2.7 1.3,0 2,0.7 2,2.1 0.1,1.1 -0.5,2 -1.7,2.9 z"
   fill="#ffffff" />
				</g>
				<polygon
   id="polygon4025"
   points="261.8,167.3 254.8,167.3 254.8,155.6 251.7,155.6 251.7,169.9 261.8,169.9 "
   fill="#ffffff" />
			</g>
		</g>
	</g>
</g><g
   id="g4063">
	<g
   id="g4049">
		<path
   id="path4035"
   d="m 644.6,231.7 c 0,2.1 -1.5,3.8 -4.1,3.8 -2.6,0 -4.1,-1.7 -4.1,-3.8 0,-2 1.5,-3.8 4.1,-3.8 2.6,0 4.1,1.7 4.1,3.8 z m -6.7,0 c 0,1.4 0.8,2.7 2.6,2.7 1.8,0 2.6,-1.4 2.6,-2.7 0,-1.4 -0.8,-2.7 -2.6,-2.7 -1.8,0 -2.6,1.3 -2.6,2.7 z"
   fill="#cccccc"
   style="fill:#f202cb;fill-opacity:1" />
		<path
   id="path4037"
   d="m 645.9,228.1 h 3.8 c 2.4,0 2.9,1.3 2.9,2.2 0,0.9 -0.5,2.2 -2.9,2.2 h -2.3 v 2.8 h -1.5 z m 1.5,3.4 h 2.2 c 0.7,0 1.5,-0.3 1.5,-1.2 0,-0.9 -0.7,-1.2 -1.5,-1.2 h -2.2 z"
   fill="#cccccc"
   style="fill:#f202cb;fill-opacity:1" />
		<path
   id="path4039"
   d="m 653.1,228.1 h 6.9 v 1.1 h -2.7 v 6.1 h -1.5 v -6.2 h -2.7 z"
   fill="#cccccc"
   style="fill:#f202cb;fill-opacity:1" />
		<path
   id="path4041"
   d="m 661.1,228.1 h 1.5 v 7.2 h -1.5 z"
   fill="#cccccc"
   style="fill:#f202cb;fill-opacity:1" />
		<path
   id="path4043"
   d="m 672.1,231.7 c 0,2.1 -1.5,3.8 -4.1,3.8 -2.6,0 -4.1,-1.7 -4.1,-3.8 0,-2 1.5,-3.8 4.1,-3.8 2.6,0 4.1,1.7 4.1,3.8 z m -6.7,0 c 0,1.4 0.8,2.7 2.6,2.7 1.8,0 2.6,-1.4 2.6,-2.7 0,-1.4 -0.8,-2.7 -2.6,-2.7 -1.8,0 -2.6,1.3 -2.6,2.7 z"
   fill="#cccccc"
   style="fill:#f202cb;fill-opacity:1" />
		<path
   id="path4045"
   d="m 673.5,228.1 h 1.6 l 3.9,5.3 v 0 -5.3 h 1.4 v 7.2 h -1.6 l -3.9,-5.3 v 0 5.3 h -1.4 z"
   fill="#cccccc"
   style="fill:#f202cb;fill-opacity:1" />
		<path
   id="path4047"
   d="m 683.2,232.9 c 0,1.1 1,1.5 2.2,1.5 1.3,0 1.8,-0.6 1.8,-1.1 0,-0.6 -0.4,-0.8 -0.7,-0.9 -0.6,-0.2 -1.4,-0.3 -2.6,-0.6 -1.5,-0.3 -1.9,-1.1 -1.9,-1.8 0,-1.5 1.6,-2.1 3.1,-2.1 1.8,0 3.3,0.8 3.3,2.3 h -1.5 c -0.1,-0.9 -0.8,-1.3 -1.8,-1.3 -0.7,0 -1.6,0.2 -1.6,0.9 0,0.5 0.4,0.8 1,0.9 0.1,0 2,0.4 2.5,0.6 1.1,0.3 1.7,1.1 1.7,1.8 0,1.6 -1.7,2.3 -3.4,2.3 -2,0 -3.5,-0.8 -3.6,-2.6 h 1.5 z"
   fill="#cccccc"
   style="fill:#f202cb;fill-opacity:1" />
	</g>
	<g
   id="g4061">
		<path
   id="path4051"
   d="m 319.2,232.9 c 0,1.1 1,1.5 2.2,1.5 1.3,0 1.8,-0.6 1.8,-1.1 0,-0.6 -0.4,-0.8 -0.7,-0.9 -0.6,-0.2 -1.4,-0.3 -2.6,-0.6 -1.5,-0.3 -1.9,-1.1 -1.9,-1.8 0,-1.5 1.6,-2.1 3.1,-2.1 1.8,0 3.3,0.8 3.3,2.3 h -1.5 c -0.1,-0.9 -0.8,-1.3 -1.8,-1.3 -0.7,0 -1.6,0.2 -1.6,0.9 0,0.5 0.4,0.8 1,0.9 0.1,0 2,0.4 2.5,0.6 1.1,0.3 1.7,1.1 1.7,1.8 0,1.6 -1.7,2.3 -3.4,2.3 -2,0 -3.5,-0.8 -3.6,-2.6 h 1.5 z"
   fill="#cccccc"
   style="fill:#f202cb;fill-opacity:1" />
		<path
   id="path4053"
   d="m 325.9,228.1 h 1.5 v 2.9 h 3.9 v -2.9 h 1.5 v 7.2 h -1.5 v -3.2 h -3.9 v 3.2 h -1.5 z"
   fill="#cccccc"
   style="fill:#f202cb;fill-opacity:1" />
		<path
   id="path4055"
   d="m 336.9,228.1 h 1.6 l 3.3,7.2 h -1.6 l -0.8,-1.9 H 336 l -0.8,1.9 h -1.5 z m -0.5,4.3 h 2.6 l -1.3,-3.1 v 0 z"
   fill="#cccccc"
   style="fill:#f202cb;fill-opacity:1" />
		<path
   id="path4057"
   d="m 342.6,228.1 h 4.1 c 1.9,0 2.8,0.7 2.8,1.9 0,1.4 -1.1,1.7 -1.4,1.8 v 0 c 0.5,0.1 1.3,0.4 1.3,1.5 0,0.8 0.1,1.6 0.5,1.9 h -1.6 c -0.2,-0.3 -0.2,-0.7 -0.2,-1.1 0,-1.3 -0.3,-1.9 -1.7,-1.9 h -2.2 v 3 h -1.5 v -7.1 z m 1.5,3.2 h 2.5 c 1,0 1.5,-0.4 1.5,-1.1 0,-0.9 -0.7,-1.1 -1.5,-1.1 h -2.4 v 2.2 z"
   fill="#cccccc"
   style="fill:#f202cb;fill-opacity:1" />
		<path
   id="path4059"
   d="m 351.1,228.1 h 6.2 v 1.1 h -4.7 v 1.9 h 4.3 v 1 h -4.3 v 2.1 h 4.7 v 1.1 h -6.2 z"
   fill="#cccccc"
   style="fill:#f202cb;fill-opacity:1" />
	</g>
</g></svg>
